<svg aria-hidden="true" style="width:0;height:0;position:absolute;overflow:hidden" xmlns="http://www.w3.org/2000/svg"><defs><symbol id="icon-modal-cross" viewBox="0 0 20 20"><path d="M10 8.586 2.929 1.515 1.515 2.929 8.586 10l-7.071 7.071 1.414 1.414L10 11.414l7.071 7.071 1.414-1.414L11.414 10l7.071-7.071-1.414-1.414L10 8.586z"/></symbol><symbol id="icon-btn" viewBox="0 0 32 32"><path d="M21.177 14.541a.194.194 0 0 0-.143-.231h-.001l-1.69-.39a.193.193 0 0 0-.088.376h.001l1.503.347-.347 1.502a.193.193 0 0 0 .376.088v-.001l.39-1.691zm-9.894 6.249 9.809-6.129-.204-.327-9.809 6.129.204.327zm17.38-3.671c.009-.15.038-.291.087-.422a.955.955 0 0 1 .181-.306l.188.122a1.097 1.097 0 0 0-.242.633v.003c-.01.173.009.299.058.379a.26.26 0 0 0 .212.127.193.193 0 0 0 .16-.057.37.37 0 0 0 .096-.161c.025-.068.047-.145.065-.229s.04-.169.063-.254a.958.958 0 0 1 .093-.224.48.48 0 0 1 .159-.161.444.444 0 0 1 .253-.048c.099.006.187.039.262.099s.132.145.169.253c.04.111.056.244.046.399a1.315 1.315 0 0 1-.072.36l.003-.009a.952.952 0 0 1-.138.284l-.191-.119a.82.82 0 0 0 .133-.253c.031-.091.049-.183.054-.275.009-.164-.012-.287-.066-.369a.256.256 0 0 0-.208-.127.213.213 0 0 0-.166.053.475.475 0 0 0-.102.161l-.001.003c-.025.07-.047.147-.066.229a2.964 2.964 0 0 1-.067.25.99.99 0 0 1-.096.232l.003-.005a.397.397 0 0 1-.395.214.441.441 0 0 1-.272-.106.565.565 0 0 1-.165-.267 1.17 1.17 0 0 1-.039-.409zm1.546 2.378a.841.841 0 0 1-.166.362.593.593 0 0 1-.302.203l-.004.001a.886.886 0 0 1-.448.003l-1.035-.222.052-.241 1.011.217c.188.04.339.023.455-.051.117-.072.194-.193.23-.362.027-.127.025-.243-.007-.349s-.092-.197-.173-.264l-.001-.001a.752.752 0 0 0-.33-.149l-.936-.201.052-.241 2.517.54-.052.241-1.225-.263.102-.028a.652.652 0 0 1 .242.332l.001.005a.877.877 0 0 1 .017.469zm-2.443 1.648a.957.957 0 0 1 .289-.395.902.902 0 0 1 .425-.18l.005-.001a.95.95 0 0 1 .492.071c.169.069.302.168.4.295s.157.27.177.429a.957.957 0 0 1-.071.485.941.941 0 0 1-.291.398.83.83 0 0 1-.423.181h-.004a.935.935 0 0 1-.492-.071.95.95 0 0 1-.4-.295.86.86 0 0 1-.18-.426v-.004a.977.977 0 0 1 .072-.488zm.203.083a.707.707 0 0 0-.053.357.641.641 0 0 0 .14.316.769.769 0 0 0 .312.226c.133.054.26.074.381.059a.612.612 0 0 0 .32-.129l-.001.001c.094-.071.166-.167.215-.287a.67.67 0 0 0-.089-.674l.001.001a.76.76 0 0 0-.312-.226c-.131-.054-.258-.073-.381-.059s-.233.061-.325.131l.002-.001a.68.68 0 0 0-.209.28l-.002.005zm-1.254 1.962a.804.804 0 0 1 .751-.392h-.003c.157.011.32.07.488.176s.29.227.366.362c.078.137.113.278.106.424s-.053.286-.139.421a.914.914 0 0 1-.348.33.81.81 0 0 1-.452.101h.002a.965.965 0 0 1-.471-.158.968.968 0 0 1-.348-.359.837.837 0 0 1-.103-.405l.001-.046v.002a.915.915 0 0 1 .148-.456zm-.053-1.145 2.11 1.331-.126.2-.464-.293-.295-.215-.33-.167-1.027-.648.132-.208zm.247 1.247a.7.7 0 0 0-.112.34v.019c0 .117.03.227.084.323l-.002-.003c.06.109.149.201.269.276s.24.116.362.122l.038.001a.66.66 0 0 0 .307-.075l-.004.002a.672.672 0 0 0 .261-.245.684.684 0 0 0 .111-.343v-.022a.65.65 0 0 0-.084-.322l.002.003c-.059-.106-.148-.196-.268-.272s-.24-.117-.363-.127l-.038-.001a.66.66 0 0 0-.307.075l.004-.002a.714.714 0 0 0-.259.247l-.002.003zm-.921 3.674a.83.83 0 0 1-.342.205.586.586 0 0 1-.372-.006l.004.001a.892.892 0 0 1-.372-.25l-.729-.767.178-.17.712.749c.132.139.267.21.404.214.137.007.269-.05.395-.169a.689.689 0 0 0 .191-.292.535.535 0 0 0 .006-.317.765.765 0 0 0-.188-.309l-.66-.694.178-.17 1.255 1.32-.171.163-.344-.362.092.041a.648.648 0 0 1 .01.42l.001-.005a.865.865 0 0 1-.251.396zm-2.926-.029a.956.956 0 0 1 .519-.168c.145 0 .283.034.405.095l-.005-.002a.947.947 0 0 1 .369.334.937.937 0 0 1 .169.526.877.877 0 0 1-.097.402l.002-.005a.955.955 0 0 1-.33.362.961.961 0 0 1-.537.171.841.841 0 0 1-.387-.094l.005.002a.951.951 0 0 1-.369-.334.953.953 0 0 1-.167-.469c-.002-.02-.002-.042-.002-.065 0-.143.035-.278.096-.397l-.002.005a.97.97 0 0 1 .333-.364zm.121.182a.632.632 0 0 0-.304.611v-.003c.01.124.055.244.133.362.08.119.174.206.283.262a.607.607 0 0 0 .338.072h-.002c.118-.006.231-.046.339-.118a.662.662 0 0 0 .303-.608.748.748 0 0 0-.133-.362.765.765 0 0 0-.283-.262.648.648 0 0 0-.304-.074l-.038.001h.002a.677.677 0 0 0-.336.12l.002-.001zm-1.586.713 1.332 1.42-.218.09-1.224-1.322.099-.041.054 1.807-.195.081-1.234-1.318.099-.041.06 1.804-.208.086-.059-1.947.215-.089 1.172 1.235-.067.028-.041-1.703.215-.089zm-3.699 1.11a1.34 1.34 0 0 1 .44 0l-.008-.001a.937.937 0 0 1 .336.115l-.081.209a1.106 1.106 0 0 0-.678-.107l.006-.001c-.172.025-.291.07-.359.134a.263.263 0 0 0-.082.233c.01.067.039.115.088.145a.376.376 0 0 0 .177.061c.072.01.151.016.238.018s.174.005.261.011a.94.94 0 0 1 .238.046.473.473 0 0 1 .19.123c.05.056.083.135.098.238.014.098 0 .19-.044.276s-.115.158-.214.217a.994.994 0 0 1-.381.126 1.27 1.27 0 0 1-.363.003l.007.001a.937.937 0 0 1-.306-.078l.078-.211c.088.043.18.069.274.079.095.012.189.011.28-.003.163-.024.278-.07.348-.139a.257.257 0 0 0 .082-.23.212.212 0 0 0-.086-.152.465.465 0 0 0-.179-.067h-.003a2.063 2.063 0 0 0-.236-.018h-.002a2.75 2.75 0 0 1-.258-.015.948.948 0 0 1-.248-.047l.007.002a.395.395 0 0 1-.289-.343.449.449 0 0 1 .049-.288.569.569 0 0 1 .228-.216c.104-.057.235-.098.392-.121zm-2.053 1.996a.823.823 0 0 1-.388-.09.59.59 0 0 1-.26-.256l-.002-.003a.888.888 0 0 1-.094-.438l.008-1.058.246.002-.008 1.034c-.002.192.046.337.142.435.094.1.228.151.401.152a.703.703 0 0 0 .341-.077.537.537 0 0 0 .224-.224.763.763 0 0 0 .079-.353l.007-.958.246.002-.02 2.574-.246-.002.01-1.252.048.094a.658.658 0 0 1-.277.305l-.003.002a.875.875 0 0 1-.455.111zm-2.085-2.053a.965.965 0 0 1 .446.201c.118.101.209.23.263.377l.002.006a.958.958 0 0 1 .033.496.947.947 0 0 1-.206.453.872.872 0 0 1-.377.26l-.006.002a.953.953 0 0 1-.489.031.964.964 0 0 1-.45-.202.85.85 0 0 1-.264-.374l-.002-.006a.934.934 0 0 1-.033-.496.95.95 0 0 1 .206-.453.867.867 0 0 1 .378-.263l.006-.002a.966.966 0 0 1 .492-.03zm-.04.215a.698.698 0 0 0-.36.022.64.64 0 0 0-.279.201l-.001.001a.755.755 0 0 0-.156.353.748.748 0 0 0 .021.385.615.615 0 0 0 .19.285l.001.001c.089.077.198.128.325.151s.247.014.358-.026a.636.636 0 0 0 .282-.198l.001-.001a.753.753 0 0 0 .156-.352.773.773 0 0 0-.021-.385.677.677 0 0 0-.193-.289l-.001-.001a.67.67 0 0 0-.318-.146l-.004-.001zm-2.176-.823a.868.868 0 0 1 .363.249.816.816 0 0 1 .176.402c.021.156-.003.327-.072.514s-.162.331-.279.433c-.118.104-.249.168-.393.191s-.291.007-.441-.049a.913.913 0 0 1-.395-.272.821.821 0 0 1-.192-.415l-.001-.005a.96.96 0 0 1 .057-.493.957.957 0 0 1 .28-.414.852.852 0 0 1 .414-.192l.005-.001a.921.921 0 0 1 .477.051zm1.109-.288-.868 2.339-.221-.082.191-.514.149-.333.095-.357.422-1.139.231.086zm-1.169.499a.7.7 0 0 0-.356-.04.658.658 0 0 0-.315.151l.001-.001c-.094.081-.166.188-.215.32s-.064.259-.044.38a.656.656 0 0 0 .435.524.658.658 0 0 0 .675-.114l-.001.001c.091-.08.161-.186.21-.318s.066-.259.049-.381a.663.663 0 0 0-.142-.32l.001.001a.712.712 0 0 0-.293-.202l-.005-.002zm-3.787-.153a.82.82 0 0 1-.27-.293.584.584 0 0 1-.07-.364v.003a.879.879 0 0 1 .17-.414l.604-.869.202.141-.59.849c-.109.158-.152.304-.128.439.021.136.103.253.246.352a.687.687 0 0 0 .386.131.536.536 0 0 0 .253-.063l-.003.001a.766.766 0 0 0 .265-.247l.546-.787.202.141-1.039 1.496-.194-.135.285-.41-.022.099a.643.643 0 0 1-.406.095h.003a.874.874 0 0 1-.439-.165zm-.562-2.866c.125.123.21.263.256.418a.898.898 0 0 1 .003.466.95.95 0 0 1-.252.429.94.94 0 0 1-.425.258.865.865 0 0 1-.47 0l.006.001a.94.94 0 0 1-.421-.25.947.947 0 0 1-.258-.42.842.842 0 0 1-.004-.47l-.001.006a.942.942 0 0 1 .252-.429.95.95 0 0 1 .425-.258.862.862 0 0 1 .472-.002l-.006-.001a.966.966 0 0 1 .424.252zm-.153.155a.69.69 0 0 0-.31-.184.635.635 0 0 0-.351.011l.005-.001a.755.755 0 0 0-.327.204.746.746 0 0 0-.199.33.613.613 0 0 0-.002.348l-.001-.004c.03.114.092.217.184.308a.663.663 0 0 0 .66.173l-.005.001a.739.739 0 0 0 .327-.204.773.773 0 0 0 .199-.33.656.656 0 0 0 .002-.349.686.686 0 0 0-.184-.303zm-1.017-1.4-1.116 1.595-.133-.195 1.042-1.469.061.089-1.757.424-.12-.175 1.037-1.478.061.089-1.753.43-.127-.186 1.894-.458.131.192-.967 1.401-.041-.06 1.659-.39.131.192zm-1.849-3.388c.048.124.081.268.09.418v.004a.95.95 0 0 1-.043.353l-.221-.037a1.106 1.106 0 0 0-.036-.687l.003.008c-.061-.163-.129-.27-.205-.323a.257.257 0 0 0-.245-.031.19.19 0 0 0-.123.116.382.382 0 0 0-.024.186c.005.072.015.151.032.236s.031.171.044.258a.94.94 0 0 1 .005.242.48.48 0 0 1-.082.213l.001-.002a.44.44 0 0 1-.213.145c-.093.035-.186.04-.28.015s-.179-.079-.257-.164a1.01 1.01 0 0 1-.203-.347 1.303 1.303 0 0 1-.077-.344v-.005a.922.922 0 0 1 .013-.316l.223.032a.766.766 0 0 0-.02.289v-.004c.008.096.029.187.061.274.057.154.126.258.208.312a.256.256 0 0 0 .241.033.214.214 0 0 0 .131-.115.48.48 0 0 0 .029-.192 2.05 2.05 0 0 0-.034-.249l.002.013a2.68 2.68 0 0 1-.038-.241l-.001-.014a.952.952 0 0 1-.006-.249v.004a.391.391 0 0 1 .276-.354.426.426 0 0 1 .295-.011l-.003-.001a.567.567 0 0 1 .258.178c.078.09.144.209.2.359zm-2.368-1.555a.83.83 0 0 1 .008-.398.6.6 0 0 1 .198-.309l.001-.001a.88.88 0 0 1 .409-.182l1.037-.21.049.242-1.013.205c-.188.038-.32.114-.396.229-.079.113-.101.254-.066.424a.69.69 0 0 0 .146.317.533.533 0 0 0 .265.173.756.756 0 0 0 .362.005l.939-.19.049.242-2.523.511-.049-.242 1.228-.249-.082.066a.65.65 0 0 1-.357-.21l-.001-.001a.86.86 0 0 1-.202-.423zm1.578-2.46a.952.952 0 0 1-.105.478.907.907 0 0 1-.317.336l-.004.002a.942.942 0 0 1-.479.134.939.939 0 0 1-.485-.108.875.875 0 0 1-.333-.317l-.002-.004a.954.954 0 0 1-.131-.472.953.953 0 0 1 .105-.482.848.848 0 0 1 .314-.336l.004-.002a.925.925 0 0 1 .479-.134.95.95 0 0 1 .485.108.877.877 0 0 1 .336.317l.002.004a.961.961 0 0 1 .131.475zm-.218.006a.706.706 0 0 0-.096-.348.643.643 0 0 0-.252-.231l-.004-.002a.76.76 0 0 0-.377-.08.748.748 0 0 0-.372.1.617.617 0 0 0-.24.246c-.057.104-.084.22-.081.349a.663.663 0 0 0 .353.58.75.75 0 0 0 .377.08.763.763 0 0 0 .372-.1.671.671 0 0 0 .242-.246l.002-.003a.69.69 0 0 0 .078-.346zm.352-2.318a.853.853 0 0 1-.169.407.825.825 0 0 1-.351.254l-.006.002c-.148.053-.321.065-.517.036s-.357-.09-.482-.183c-.126-.094-.216-.208-.268-.345s-.067-.283-.044-.441a.91.91 0 0 1 .185-.443.825.825 0 0 1 .365-.273l.006-.002a.963.963 0 0 1 .494-.047.96.96 0 0 1 .463.188c.122.095.217.22.273.364l.002.006a.916.916 0 0 1 .049.477zm.512 1.026-2.468-.363.034-.233.542.08.357.077.369.019 1.201.177-.036.244zm-.731-1.041a.693.693 0 0 0-.035-.356.663.663 0 0 0-.21-.275l-.002-.001c-.099-.075-.218-.123-.358-.144s-.266-.009-.381.035a.665.665 0 0 0-.423.534.677.677 0 0 0 .04.365l-.002-.005a.663.663 0 0 0 .21.275l.002.001c.097.073.215.12.355.14s.267.01.383-.031a.668.668 0 0 0 .282-.203l.001-.001a.693.693 0 0 0 .136-.33v-.004zm-.628-3.766a.842.842 0 0 1 .231-.324.585.585 0 0 1 .337-.143h.002a.872.872 0 0 1 .44.081l.975.412-.096.227-.952-.403c-.177-.075-.329-.086-.456-.035-.129.049-.227.153-.294.313a.703.703 0 0 0-.059.344c.01.107.05.205.121.292.07.085.168.154.296.208l.882.373-.096.227-1.678-.709.092-.217.46.195-.101-.001a.649.649 0 0 1-.176-.373v-.003a.86.86 0 0 1 .072-.463zm2.689-1.136a.975.975 0 0 1-.357.335.893.893 0 0 1-.41.099l-.048-.001h.002a.958.958 0 0 1-.471-.16.94.94 0 0 1-.339-.364.862.862 0 0 1-.097-.399l.002-.057v.003a.94.94 0 0 1 .159-.463.955.955 0 0 1 .359-.338.831.831 0 0 1 .456-.099h-.002a.939.939 0 0 1 .471.16.95.95 0 0 1 .339.364.861.861 0 0 1 .099.403l-.002.055v-.002a.956.956 0 0 1-.161.466zm-.183-.118a.7.7 0 0 0 .118-.341l.001-.027a.635.635 0 0 0-.082-.313l.002.003a.752.752 0 0 0-.266-.279.755.755 0 0 0-.417-.13.62.62 0 0 0-.288.071l.003-.002c-.106.053-.194.133-.264.242s-.108.222-.113.34c-.007.117.018.229.075.338s.145.201.266.279a.766.766 0 0 0 .409.13c.108 0 .21-.026.3-.072l-.004.002a.677.677 0 0 0 .259-.241zm1.158-1.28-1.788-.77.164-.17 1.65.723-.075.078-.771-1.635.147-.152 1.657.716-.075.077-.776-1.63.157-.162.832 1.761-.161.167-1.568-.664.051-.052.718 1.545-.161.167zm2.91-2.487a1.412 1.412 0 0 1-.384.173l-.01.002a.924.924 0 0 1-.354.03l-.01-.224a1.121 1.121 0 0 0 .662-.176l-.004.003c.147-.093.238-.182.274-.267a.258.258 0 0 0-.02-.246.193.193 0 0 0-.139-.097.373.373 0 0 0-.187.016c-.07.019-.145.046-.224.08s-.161.066-.243.096a.993.993 0 0 1-.274.057.49.49 0 0 1-.188-.038l.003.001a.452.452 0 0 1-.186-.178.443.443 0 0 1-.073-.246l.001-.026v.001a.544.544 0 0 1 .107-.285c.067-.097.167-.187.298-.27.094-.06.201-.11.316-.145l.009-.002a.943.943 0 0 1 .311-.053l.014.225-.034-.001a.825.825 0 0 0-.255.041l.006-.002a1.06 1.06 0 0 0-.259.118l.004-.003c-.139.088-.226.177-.262.268a.254.254 0 0 0 .018.243.217.217 0 0 0 .14.105c.058.01.123.006.194-.012.072-.021.146-.047.224-.08.08-.034.16-.064.242-.091a.997.997 0 0 1 .298-.061c.058 0 .113.013.163.035l-.002-.001a.4.4 0 0 1 .184.167c.057.09.081.184.072.283a.577.577 0 0 1-.121.29 1.17 1.17 0 0 1-.31.269zm1.069-2.66a.826.826 0 0 1 .391-.074.59.59 0 0 1 .345.132l-.001-.001a.9.9 0 0 1 .263.363l.42.972-.226.098-.41-.949c-.076-.176-.178-.29-.306-.34-.126-.054-.269-.046-.429.023a.704.704 0 0 0-.281.208.527.527 0 0 0-.114.293v.002a.756.756 0 0 0 .07.355l.38.879-.226.098-1.021-2.364.226-.098.497 1.15-.082-.067c0-.149.05-.285.134-.395l-.001.002a.865.865 0 0 1 .372-.285zm2.695 1.045a.967.967 0 0 1-.49-.004.906.906 0 0 1-.397-.244.948.948 0 0 1-.23-.441.948.948 0 0 1 .006-.497.878.878 0 0 1 .244-.393l.001-.001a.944.944 0 0 1 .435-.225.955.955 0 0 1 .493.004.846.846 0 0 1 .396.24l.001.001a.934.934 0 0 1 .23.441.95.95 0 0 1-.006.497.869.869 0 0 1-.244.397l-.001.001a.966.966 0 0 1-.438.226zM12.9 3.88a.704.704 0 0 0 .321-.166.647.647 0 0 0 .174-.294l.001-.004a.76.76 0 0 0 .001-.385.75.75 0 0 0-.175-.344.612.612 0 0 0-.286-.183l-.004-.001c-.113-.035-.232-.037-.359-.007a.67.67 0 0 0-.495.46l-.001.005a.752.752 0 0 0-.001.386.765.765 0 0 0 .175.344.668.668 0 0 0 .294.187.684.684 0 0 0 .354.005zm2.292-.131a.85.85 0 0 1-.433-.081.821.821 0 0 1-.322-.293l-.002-.003c-.082-.134-.13-.3-.142-.499s.014-.368.08-.509c.066-.143.159-.254.282-.334s.264-.124.423-.134a.91.91 0 0 1 .471.089.821.821 0 0 1 .346.305.96.96 0 0 1 .147.474c.012.185-.018.349-.088.492s-.174.26-.302.344l-.003.002a.917.917 0 0 1-.457.147zm-.898.713-.154-2.49.236-.015.034.547-.002.365.057.365.075 1.212-.246.015zm.867-.93a.691.691 0 0 0 .341-.108.67.67 0 0 0 .225-.26l.002-.004c.053-.112.076-.239.067-.38s-.046-.262-.113-.365a.668.668 0 0 0-.254-.233l-.004-.002a.667.667 0 0 0-.352-.069.684.684 0 0 0-.347.113l.003-.002a.67.67 0 0 0-.225.26l-.002.004c-.051.11-.072.235-.064.376s.045.264.11.369c.064.1.151.179.254.233l.004.002a.704.704 0 0 0 .301.067l.057-.002h-.002zm3.64-1.395a.828.828 0 0 1 .365.159.587.587 0 0 1 .21.302.888.888 0 0 1 .012.448l-.202 1.039-.242-.047.198-1.015c.037-.188.017-.34-.06-.454-.074-.116-.196-.19-.367-.223-.127-.025-.243-.02-.349.013s-.195.096-.26.178l-.001.001a.77.77 0 0 0-.143.333l-.183.94-.242-.047.348-1.788.232.045-.095.49-.02-.099a.658.658 0 0 1 .327-.249l.005-.001a.86.86 0 0 1 .468-.025zm1.655 2.39a.973.973 0 0 1-.402-.28.895.895 0 0 1-.189-.421l-.001-.005a.95.95 0 0 1 .06-.494.939.939 0 0 1 .286-.407.864.864 0 0 1 .42-.186l.005-.001a.952.952 0 0 1 .486.06.965.965 0 0 1 .405.281.843.843 0 0 1 .191.423.934.934 0 0 1-.06.494.96.96 0 0 1-.286.407.863.863 0 0 1-.421.189l-.005.001a.961.961 0 0 1-.489-.061zm.079-.204a.704.704 0 0 0 .358.045.642.642 0 0 0 .314-.148l-.001.001a.767.767 0 0 0 .219-.318.753.753 0 0 0 .05-.382.619.619 0 0 0-.136-.317l.001.001c-.073-.093-.171-.162-.292-.209a.66.66 0 0 0-.672.104l.001-.001a.752.752 0 0 0-.218.317.758.758 0 0 0-.05.382.663.663 0 0 0 .137.32c.074.09.171.158.29.204zm1.531.891.391-1.907.2.126-.374 1.762-.091-.057 1.445-1.086.179.113-.365 1.768-.091-.057 1.439-1.09.191.12-1.556 1.172-.197-.124.332-1.67.062.039-1.368 1.016-.197-.124zm3.029 2.351a1.458 1.458 0 0 1-.248-.343l-.004-.008a.962.962 0 0 1-.102-.34l.217-.055a1.083 1.083 0 0 0 .304.609c.12.125.226.196.318.214a.261.261 0 0 0 .237-.069.196.196 0 0 0 .067-.156.384.384 0 0 0-.053-.18 1.834 1.834 0 0 0-.128-.209l.004.006a4.12 4.12 0 0 1-.143-.219.946.946 0 0 1-.099-.213l-.002-.007a.479.479 0 0 1-.01-.229v.003a.441.441 0 0 1 .136-.218.453.453 0 0 1 .247-.125h.003a.538.538 0 0 1 .301.047.992.992 0 0 1 .324.237c.082.085.152.181.211.288.06.106.099.204.115.294l-.217.06a.787.787 0 0 0-.098-.273l.002.004a1.037 1.037 0 0 0-.166-.227c-.114-.118-.219-.186-.315-.202a.255.255 0 0 0-.234.067.212.212 0 0 0-.074.158.466.466 0 0 0 .051.187c.035.066.076.134.124.204.05.071.096.144.138.218a.971.971 0 0 1 .104.223.39.39 0 0 1-.11.435.448.448 0 0 1-.263.128.557.557 0 0 1-.308-.06 1.164 1.164 0 0 1-.327-.249zm2.802.481a.835.835 0 0 1 .161.461.586.586 0 0 1-.067.273l.002-.003a.875.875 0 0 1-.301.331l-.865.61-.142-.201.845-.596c.157-.111.247-.234.27-.369.027-.135-.01-.273-.11-.415a.704.704 0 0 0-.261-.232.534.534 0 0 0-.312-.051.747.747 0 0 0-.333.142l-.783.552-.142-.201 2.104-1.484.142.201-1.024.722.049-.094a.656.656 0 0 1 .416.05l-.004-.002c.136.06.254.162.355.306zm-.455 2.879a.958.958 0 0 1-.096-.48.903.903 0 0 1 .541-.755c.165-.078.328-.11.488-.096s.305.067.436.159.234.218.31.38c.077.163.11.324.098.483a.843.843 0 0 1-.156.44l.002-.003a.945.945 0 0 1-.384.316.952.952 0 0 1-.488.096.862.862 0 0 1-.442-.159l.003.002a.97.97 0 0 1-.311-.383zm.198-.093a.699.699 0 0 0 .228.28.627.627 0 0 0 .327.11h.002a.76.76 0 0 0 .377-.078.74.74 0 0 0 .3-.242.66.66 0 0 0 .053-.674.672.672 0 0 0-.555-.389h-.002a.747.747 0 0 0-.377.078.75.75 0 0 0-.3.242.665.665 0 0 0-.122.323v.003a.654.654 0 0 0 .07.352l-.002-.004zm.595 2.218a.844.844 0 0 1-.009-.44.83.83 0 0 1 .223-.378c.114-.108.267-.189.459-.242s.363-.062.515-.026c.153.034.282.104.384.207s.176.232.218.386a.923.923 0 0 1 .01.48.815.815 0 0 1-.228.401.966.966 0 0 1-.434.242.97.97 0 0 1-.5.015.857.857 0 0 1-.401-.228.917.917 0 0 1-.237-.417zm-.882-.733 2.406-.662.062.227-.529.145-.358.073-.345.131-1.171.322-.065-.238zm1.088.658a.687.687 0 0 0 .176.312.669.669 0 0 0 .305.168c.121.029.249.025.385-.012s.248-.099.334-.185a.66.66 0 0 0 .172-.659.663.663 0 0 0-.481-.481l-.005-.001c-.118-.028-.245-.023-.381.015s-.249.098-.338.183a.66.66 0 0 0-.177.3.715.715 0 0 0 .009.361z"/></symbol><symbol id="icon-burger" viewBox="0 0 32 32"><path d="M4 5.333h24V8H4V5.333zm8 9.334h16v2.667H12v-2.667zM4 24h24v2.667H4V24z"/></symbol><symbol id="icon-burger-cross" viewBox="0 0 32 32"><path fill="none" stroke="#fff" style="stroke:var(--color1,#fff)" stroke-linejoin="round" stroke-linecap="round" stroke-width="2.667" d="M24 8 8 24M8 8l16 16"/></symbol><symbol id="icon-facebook" viewBox="0 0 32 32"><path fill="none" stroke="#fff" style="stroke:var(--color1,#fff)" stroke-linejoin="round" stroke-linecap="round" stroke-width="2.286" d="M24 2.666h-4.001a6.666 6.666 0 0 0-6.666 6.666v4.001h-4v5.333h4v10.667h5.334V18.666h4l1.334-5.333h-5.334v-4c0-.737.597-1.334 1.334-1.334v0h4V2.665z"/></symbol><symbol id="icon-instagram" viewBox="0 0 32 32"><path fill="none" stroke="#fff" style="stroke:var(--color1,#fff)" stroke-linejoin="round" stroke-linecap="round" stroke-width="2.286" d="M22.667 2.666H9.333a6.666 6.666 0 0 0-6.666 6.666V22.667a6.666 6.666 0 0 0 6.666 6.666h13.334a6.666 6.666 0 0 0 6.666-6.666v-.001 0V9.332a6.666 6.666 0 0 0-6.666-6.666h-.001 0z"/><path fill="none" stroke="#fff" style="stroke:var(--color1,#fff)" stroke-linejoin="round" stroke-linecap="round" stroke-width="2.286" d="M21.334 15.16a5.334 5.334 0 0 1-10.549 1.594l-.004-.03A5.334 5.334 0 0 1 21.33 15.13l.004.03zm1.999-6.494h.014"/></symbol><symbol id="icon-logo" viewBox="0 0 32 32"><path d="M13.081 28.274v-4.068l-.105-.666v-6.803c0-1.566-.444-2.77-1.333-3.612-.865-.842-2.162-1.262-3.893-1.262-1.192 0-2.326.199-3.402.596s-1.987.924-2.735 1.578L.491 12.178c.935-.795 2.057-1.403 3.367-1.824a12.793 12.793 0 0 1 4.138-.666c2.385 0 4.22.596 5.506 1.789 1.309 1.169 1.964 2.958 1.964 5.365v11.432h-2.385zm-6.348.175c-1.38 0-2.583-.222-3.612-.666-1.005-.468-1.777-1.099-2.315-1.894-.538-.818-.807-1.753-.807-2.805 0-.959.222-1.824.666-2.595.468-.795 1.216-1.426 2.244-1.894 1.052-.491 2.455-.736 4.208-.736h6.347v1.859H7.187c-1.777 0-3.016.316-3.717.947-.678.631-1.017 1.415-1.017 2.35 0 1.052.409 1.894 1.227 2.525s1.964.947 3.437.947c1.403 0 2.607-.316 3.612-.947 1.029-.654 1.777-1.59 2.244-2.805l.561 1.718c-.468 1.216-1.286 2.186-2.455 2.911-1.145.725-2.595 1.087-4.348 1.087z"/><path d="M23.391 28.449c-1.917 0-3.601-.398-5.05-1.192-1.45-.818-2.584-1.929-3.402-3.332-.818-1.426-1.227-3.051-1.227-4.875s.386-3.437 1.157-4.839c.795-1.403 1.87-2.502 3.226-3.296 1.379-.818 2.922-1.227 4.629-1.227 1.73 0 3.261.398 4.594 1.192 1.356.771 2.42 1.87 3.191 3.296.771 1.403 1.157 3.028 1.157 4.875 0 .117-.012.245-.035.386v.386H15.605v-1.859h14.694l-.982.736c0-1.333-.292-2.513-.877-3.542-.561-1.052-1.333-1.87-2.315-2.455s-2.116-.877-3.402-.877c-1.262 0-2.396.292-3.402.877s-1.788 1.403-2.35 2.455-.842 2.256-.842 3.612v.386c0 1.403.304 2.642.912 3.717a6.811 6.811 0 0 0 2.595 2.49c1.122.584 2.396.877 3.822.877 1.122 0 2.162-.199 3.121-.596a6.489 6.489 0 0 0 2.525-1.824l1.403 1.613c-.818.982-1.847 1.73-3.086 2.244-1.216.514-2.56.771-4.033.771zM29.633 5.918H17.359v-2.63h12.274v2.63z"/></symbol><symbol id="arrow-left" viewBox="0 0 50 32"><path fill="none" stroke-width="1.185" d="M49.185 16c0 8.509-6.898 15.407-15.407 15.407S18.371 24.509 18.371 16 25.269.593 33.778.593 49.185 7.491 49.185 16z"/><path d="M.766 16.173a.595.595 0 0 0 0 .84l3.771 3.77a.593.593 0 0 0 .84-.838l-3.353-3.352 3.353-3.352a.593.593 0 1 0-.839-.839L.767 16.173zm.419 1.012H34.37V16H1.185v1.185z"/></symbol><symbol id="arrow-right" viewBox="0 0 50 32"><path fill="none" stroke-width="1.185" d="M31.407 16c0 8.509-6.898 15.407-15.407 15.407S.593 24.509.593 16 7.491.593 16 .593 31.407 7.491 31.407 16z"/><path d="M49.012 15.827a.595.595 0 0 0 0-.84l-3.771-3.771a.593.593 0 0 0-.838.84l3.352 3.352-3.352 3.352a.593.593 0 1 0 .838.838l3.771-3.77zM15.407 16h33.185v-1.185H15.407V16z"/></symbol><symbol id="icon-tel" viewBox="0 0 32 32"><path d="m26.331 6.267-3.346-3.344c-.392-.394-.934-.638-1.534-.638s-1.142.244-1.534.638l-3.606 3.599c-.394.393-.638.936-.638 1.537s.244 1.144.638 1.537l2.816 2.818a12.813 12.813 0 0 1-2.715 4 12.798 12.798 0 0 1-3.916 2.69l-.082.032-2.815-2.819c-.392-.394-.934-.638-1.534-.638s-1.142.244-1.534.638l-3.608 3.599c-.394.393-.638.936-.638 1.537s.244 1.144.638 1.537l3.344 3.343a3.765 3.765 0 0 0 2.647 1.097c.205 0 .402-.016.603-.05 4.16-.686 8.29-2.901 11.625-6.232 3.331-3.337 5.544-7.466 6.235-11.63a3.732 3.732 0 0 0-1.047-3.249zM25.15 9.143c-.613 3.705-2.606 7.4-5.607 10.401s-6.694 4.994-10.4 5.606a1.474 1.474 0 0 1-1.281-.415l-3.285-3.283 3.482-3.486 3.793 3.8.679-.251c4.177-1.566 7.414-4.803 8.945-8.876l.034-.104.251-.679-3.797-3.794 3.482-3.483 3.285 3.283c.339.339.496.817.417 1.282z"/></symbol><symbol id="icon-plants" viewBox="0 0 42 32"><path fill="#f58b3d" style="fill:var(--color1,#f58b3d)" opacity=".255" d="M38.92 25.599c.539 3.691-12.54 6.099-23.798 4.419S-1.301 21.776 4.072 18.28c5.372-3.496 34.309 3.628 34.849 7.319z"/><path fill="#f58b3d" style="fill:var(--color1,#f58b3d)" d="M22.74 10.218c.204-.142.519-.052.724.032.079.032.281.136.43.253a4.835 4.835 0 0 1-.053-.245 8.417 8.417 0 0 1-.128-1.025c-.005-.089.002-.189.009-.29l.007-.103a.057.057 0 0 1-.016-.034l-.002.015-.002.01c-.001.001-.003-.002-.007-.008a.03.03 0 0 0-.005-.007c-.151-.207-.279-.441-.296-.698-.015-.218.181-.63.458-.344.124.127.092 1.022-.094 1.077.05.296.112.592.191.884a.138.138 0 0 1 .035-.001 2.28 2.28 0 0 1 .002-.179c.028-.235.242-.711.583-.619.262.071.101.364.012.492-.144.206-.306.296-.512.403-.004.044-.035.07-.072.079.138.472.319.932.556 1.367l.006-.028c.03-.132.065-.286.087-.318.116-.169.373-.376.61-.276.498.21-.042.815-.466.881a.184.184 0 0 1-.056.05c.082.131.17.26.264.385.141.188.293.376.452.563.005-.146.068-.471.086-.506.109-.212.422-.431.676-.28.286.17.027.491-.136.637-.067.06-.397.278-.514.279.384.44.808.872 1.24 1.289a6.868 6.868 0 0 1-.077-.757c.027-.294.238-.765.654-.65.404.111.225.6.087.833a1.263 1.263 0 0 1-.339.383c-.025.018-.058.032-.091.047a.4.4 0 0 0-.105.058c-.023.021-.03.044-.037.067a.122.122 0 0 1-.041.07c.233.224.468.444.699.657.109.101.22.2.332.297.061-.023.149.007.144.087a.094.094 0 0 1-.007.031l.257.216a.492.492 0 0 1 .003-.09c-.062.081-.06-.037-.058-.127a.565.565 0 0 0-.001-.075c-.009-.058-.021-.115-.033-.172-.025-.122-.05-.243-.049-.369.003-.267.187-.715.576-.556.357.146.227.542.093.79a2.241 2.241 0 0 1-.324.431 1.068 1.068 0 0 0-.07.089c-.036.048-.07.095-.096.112.332.272.672.537 1.011.801l.455.356c.007-.026.012-.052.017-.076-.009.01-.022.014-.039.013l-.019-.079c-.093-.39-.378-1.58.393-1.349.565.169.166 1.205-.255 1.567.256.202.509.407.757.618.179.153.353.311.52.474-.087-.211-.168-.485-.114-.702.078-.317.443-.616.799-.436.444.226.102.534-.218.823-.163.148-.322.29-.367.414.531.535.985 1.13 1.288 1.807.33.736.636 1.726.466 2.55.031-.362-.102-.817-.196-1.137a10.709 10.709 0 0 1-.036-.122 6.16 6.16 0 0 0-.605-1.429c-.423-.723-.982-1.336-1.626-1.893-.147.047-.306.134-.439.205-.081.044-.152.083-.203.103-.247.097-.72.237-.878-.07-.155-.302.24-.471.484-.539a1.28 1.28 0 0 1 .67-.004 48.38 48.38 0 0 0-1.04-.814l-.193-.148a3.138 3.138 0 0 0-.291.266c-.331.325-.723.71-1.073.396-.528-.475.482-.958.912-.92a.873.873 0 0 1 .154.029c-.439-.341-.871-.69-1.28-1.062-.073.012-.19.111-.33.23-.315.267-.749.634-1.076.345-.236-.209-.155-.534.073-.72s.561-.186.843-.124c.122.027.234.079.339.142l.013.001c-.402-.371-.807-.75-1.196-1.142l-.021.006a.111.111 0 0 1-.099.03l-.061.019c-.309.098-.705.223-1.013.169-.226-.04-.432-.208-.24-.416.156-.169.579-.145.785-.105.101.02.21.076.32.133.046.024.093.048.138.069a.093.093 0 0 1 .056-.043 14.877 14.877 0 0 1-1.085-1.227c-.101.014-.213.055-.328.097-.277.101-.575.209-.789-.024-.316-.344.278-.544.56-.511a1.3 1.3 0 0 1 .28.068 4.339 4.339 0 0 1-.557-1.117l-.004.002-.006.003.005-.003a.008.008 0 0 1 .004-.002l-.037-.118a.503.503 0 0 0-.052-.023c.128.081-.413.121-.514.128-.224.016-.524.023-.688-.146-.138-.141-.13-.35.039-.468zm10.305 11.888a.906.906 0 0 1-.077.319c.033-.103.058-.209.077-.319z"/><path fill="#f1f447" style="fill:var(--color2,#f1f447)" opacity=".2" d="M12.577 2.591c-.149-.103-.379-.037-.529.024a1.546 1.546 0 0 0-.314.183c.014-.058.027-.117.039-.177.046-.244.078-.494.094-.741.004-.065-.001-.137-.006-.21l-.005-.074a.045.045 0 0 0 .012-.025.05.05 0 0 1 .001.011l.001.007.005-.006a.018.018 0 0 1 .004-.005c.111-.15.204-.319.216-.504.011-.157-.132-.455-.334-.249-.091.092-.067.739.069.779a6.83 6.83 0 0 1-.139.64c-.009-.001-.017-.002-.026 0a1.67 1.67 0 0 0-.001-.13c-.02-.17-.177-.514-.426-.447-.191.052-.074.263-.009.356.105.149.223.214.373.291.003.032.026.051.053.057a4.963 4.963 0 0 1-.406.988l-.005-.02c-.022-.095-.047-.207-.064-.23-.085-.122-.272-.271-.445-.199-.363.152.031.589.34.637a.124.124 0 0 0 .041.036c-.06.095-.124.188-.193.278a8.532 8.532 0 0 1-.33.407 2.003 2.003 0 0 0-.062-.366c-.079-.153-.308-.311-.493-.202-.209.123-.02.355.099.46.049.043.29.201.375.202a15.87 15.87 0 0 1-.906.933c.026-.135.06-.506.057-.548-.019-.213-.174-.553-.477-.47-.295.08-.165.434-.064.603a.91.91 0 0 0 .248.277c.018.013.042.023.066.034.029.013.058.025.077.042.017.015.022.032.027.049s.011.035.03.05c-.17.162-.342.321-.511.476-.08.073-.161.144-.243.215-.045-.017-.109.005-.105.063 0 .008.003.016.005.022l-.188.156a.385.385 0 0 0-.002-.065c.045.058.043-.027.042-.092 0-.023-.001-.043.001-.054a2.47 2.47 0 0 1 .024-.124c.018-.088.037-.176.036-.267-.002-.193-.136-.517-.42-.402-.261.106-.166.392-.068.571.062.114.147.215.236.312a.754.754 0 0 1 .051.064.413.413 0 0 0 .07.081c-.242.197-.49.388-.738.58l-.333.258a.691.691 0 0 1-.012-.055c.007.007.016.01.028.01l.013-.057c.068-.282.277-1.143-.286-.976-.413.123-.122.871.186 1.133-.187.146-.372.295-.553.447a7.3 7.3 0 0 0-.38.343c.063-.153.123-.351.084-.508-.057-.229-.323-.445-.583-.315-.324.163-.075.386.159.595.119.107.235.21.268.299-.388.387-.72.817-.941 1.307-.241.533-.465 1.248-.342 1.844-.023-.262.075-.591.144-.822l.026-.089c.103-.358.25-.707.443-1.033.309-.523.717-.967 1.188-1.37.107.034.224.097.32.148.059.032.111.06.148.074.18.07.526.171.641-.051.113-.218-.175-.341-.354-.389a.954.954 0 0 0-.489-.003c.249-.201.505-.395.76-.589l.141-.107c.065.048.137.118.213.192.241.235.527.513.783.286.386-.344-.351-.692-.666-.665a.584.584 0 0 0-.112.021c.321-.247.636-.499.935-.769.054.009.139.08.241.166.23.193.547.458.785.249.172-.151.114-.386-.053-.521s-.409-.135-.615-.089a.845.845 0 0 0-.248.103h-.01c.294-.268.589-.542.874-.826l.015.004c.017.019.046.026.072.022l.044.014c.225.07.515.161.74.122.165-.029.315-.151.176-.301-.114-.122-.422-.104-.573-.075-.073.014-.153.055-.234.096-.034.017-.068.035-.101.05a.067.067 0 0 0-.041-.031c.281-.285.549-.58.793-.887.074.01.155.04.239.07.203.073.42.151.576-.018.23-.249-.203-.393-.409-.37a.895.895 0 0 0-.204.05c.177-.253.312-.524.407-.808l.003.001.004.002-.004-.002-.003-.002c.009-.028.019-.057.027-.086l.038-.017c-.094.059.301.087.375.092.163.012.382.016.502-.105.101-.102.095-.253-.028-.338zm-7.536 8.576c.007.08.029.152.071.212a1.124 1.124 0 0 1-.071-.212z"/><path fill="#b45661" style="fill:var(--color3,#b45661)" opacity=".49" d="M28.63 16.63c.801-.038 1.792.39 1.878 1.187.062.579.043 1.156.139 1.735.077.462.239.906.461 1.326.213.405.655.749.77 1.182.073.276.032.663-.069.933-.123.328-.058.302.187.577.48.539.912 1.091 1.218 1.735.44.927.729 2.01.565 3.025-.021.129-.045.591-.239.623-.217.036-.115-.228-.104-.314.074-.545.139-1.021.05-1.575-.343-2.136-2.017-3.543-3.108-5.355-.06-.093-.186-.316-.275-.463-.139-.232-.279-.673-.467-.845-.354-.324-.029.327.04.451.087.157.183.324.273.462.409.639.866 1.336 1.288 1.994-1.827.381-3.114-1.629-3.604-2.95-.404-1.089-.887-3.634.995-3.727z"/><path fill="#e7502f" style="fill:var(--color4,#e7502f)" opacity=".49" d="M39.369 14.608c-1.339.097-2.199.906-2.599 2.037-.216.609-.24 1.236-.36 1.862-.18.942-.568 1.657-1.327 2.328a2.36 2.36 0 0 0-.531.65 2.776 2.776 0 0 0-.613.802c-.199.403-.256.886-.026 1.288.062.108.217.325.377.423-.6 1.168-.929 2.448-.892 3.726.023.771.064 1.543.112 2.314.013.207.087.549.197.201.101-.317-.026-.816-.038-1.147-.057-1.615-.106-3.084.621-4.593.076-.158.157-.315.241-.471l.014-.009.009.007.021-.031a.435.435 0 0 0 .065-.084c.064-.082.137-.178.138-.23v-.001c.45-.672.965-1.307 1.492-1.929-.004.005.571-.712.482-.316-.043.191-.466.554-.636.756-.378.45-.821 1.02-1.19 1.571-.05.026-.12.154-.17.25-.028.048-.054.097-.08.14 1.306.395 2.322-.401 3.015-1.326l.002-.003c.211-.256.427-.509.697-.712.45-.337.932-.397 1.463-.563 1.447-.453 2.063-2.169 2.258-3.443.221-1.437-.858-3.64-2.742-3.498z"/><path fill="#e7502f" style="fill:var(--color4,#e7502f)" opacity=".49" d="M36.723 10.585c-1.375 1.309-2.039 3.125-2.565 4.832-.587 1.907-.975 3.842-.99 5.825-.01 1.302-.048 2.613.035 3.913.029.462.08.925.16 1.382.007.038.186 1.058.357.82.097-.135-.184-1.059-.205-1.212-.119-.866-.147-1.739-.141-2.611.01-1.436-.037-2.866.122-4.297.024-.214.042-.438.098-.647.059-.222-.016-.125.176-.213.186-.086.417-.073.61-.181.767-.426 1.16-1.519 1.465-2.236.349-.82.562-1.695.731-2.559a16.62 16.62 0 0 0 .264-1.907c.016-.203.017-.414.06-.613.012-.054.071-.149.068-.196-.005-.101-.071-.16-.076-.244a3.93 3.93 0 0 0-.169.146zM29.227 28.026c0 2.165 1.918 3.92 4.284 3.92s4.284-1.755 4.284-3.92z"/><path fill="#b45661" style="fill:var(--color3,#b45661)" opacity=".49" d="M36.448 24.594c1.06-.071 2.244.711 2.756 1.526.412.657.343 1.519.088 2.217-.171.467-.543 1.133-1.163 1.139-.777.008-.814-.87-.829-1.383-.02-.682-.114-1.277-.702-1.742-.073-.057-.149-.111-.225-.165-.068-.048-.135-.095-.2-.146l-.031-.024c-.208-.16-.426-.328-.453-.591-.038-.382.197-.451.557-.38.012.002.043.013.086.028.184.064.576.2.501.037-.028-.061-.13-.11-.259-.146-.333-.033-.73-.072-.844-.049-1.232.247-1.712 1.809-1.839 2.801a8.795 8.795 0 0 0-.035.322h-.226c.016-.26.036-.519.084-.776.182-.983.749-2.426 1.995-2.586.046-.006.215-.007.42.004a.806.806 0 0 1 .32-.087z"/><path fill="#b45661" style="fill:var(--color3,#b45661)" opacity=".25" d="M10.46 9.471c.247-.322.704-1.139 1.051-1.254.224-.074.158.692.161.838.011.565-.049 1.127-.124 1.687-.134 1.011-.571 1.911-1.171 2.771-.309.443-.671.891-1.172 1.167-.231.127-.509.148-.737.258-.266.128-.121.024-.241.278-.166.351-.219.805-.296 1.18-.353 1.722-1.208 10.823-1.06 12.574a.118.118 0 0 1-.235.003c-.063-1.005.48-7.963.754-10.238s.551-4.286.829-5.073c.337-.955.947-2.104 1.454-2.994.236-.414.492-.813.785-1.196z"/><path fill="#f1f447" style="fill:var(--color2,#f1f447)" opacity=".25" d="M12.29 20.631c.642-.431 1.336.382.756.814-.321.238-.657.154-.846-.045-.123.137-.237.28-.348.401-.336.368-.654.745-.957 1.131-.631.801-1.171 1.648-1.736 2.479a52.452 52.452 0 0 0-1.616 2.486c-.428.713-.999 1.551-1.146 2.332.222-1.657 1.066-3.249 2.072-4.71.997-1.449 2.141-3.031 3.685-4.174-.157-.211-.161-.513.137-.713z"/><path fill="#b45661" style="fill:var(--color3,#b45661)" opacity=".25" d="M.112 16.591c.359.064.946.807 1.242 1.091.352.337.671.695.972 1.071a17.929 17.929 0 0 1 1.72 2.566 22.643 22.643 0 0 1 1.913 4.556c.286.975.471 1.985.58 2.988.021.189.237 1.648-.075 1.687-.281.035-.194-1.108-.208-1.263-.153-1.754-.612-3.461-1.251-5.114-.139-.36-.268-.801-.491-1.125-.16-.233-.001-.152-.283-.24-.242-.076-.517-.057-.764-.15-.538-.202-.968-.593-1.345-.987-.733-.766-1.314-1.594-1.617-2.575-.168-.544-.322-1.091-.408-1.652-.022-.145-.216-.894.015-.852z"/><path fill="#e7502f" style="fill:var(--color4,#e7502f)" opacity=".25" d="M1.53 4.223c1.353 2.146 2.464 4.504 3.182 6.893.435 1.447.739 2.932 1.041 4.406.468 2.282.91 4.565 1.036 6.888.127 2.336.377 5.031-.459 7.282.418-2.285.02-4.717-.05-7.016a38.184 38.184 0 0 0-.259-3.275c-.124-1.058-.327-2.112-.516-3.162-.092-.511-.189-1.022-.287-1.532-.029-.152-.042-.604-.147-.708s-.648-.147-.819-.224a4.388 4.388 0 0 1-.95-.607c-.547-.445-1.023-1.027-1.398-1.6C1.035 10.241.688 8.622.705 7.085c.003-.298.528-3.511.317-3.555a.672.672 0 0 0 .036-.042c.159.244.316.49.471.737z"/><path fill="#e7502f" style="fill:var(--color4,#e7502f)" opacity=".25" d="M16.13 11.965c.021-.028.157-.219.088-.207.139-.025-.192.211.155.066-.165.142-.07.327-.067.519.004.311-.053.62-.117.924a5.944 5.944 0 0 1-.471 1.397 6.402 6.402 0 0 1-2.248 2.524c-.475.301-.94.404-1.481.542-.342.088-.369.249-.551.553a32.287 32.287 0 0 0-1.082 1.916c-.398.78-.784 1.562-1.149 2.356-1.228 2.675-2.227 5.447-2.751 8.316-.013-1.69.415-3.432.954-5.043.393-1.174.904-2.306 1.449-3.426.132-.272.332-.62.389-.92.039-.21-.081-.412-.136-.633-.214-.861-.199-1.826-.011-2.692.208-.955.808-1.398 1.824-1.533.371-.049.844-.031 1.184-.176.371-.158.524-.676.735-1.009a13.918 13.918 0 0 1 2.013-2.506c.214-.209.444-.401.689-.58.154-.113.48-.251.584-.39z"/><path fill="#f1f447" style="fill:var(--color2,#f1f447)" opacity=".25" d="M4.451 29.354c-.026-.162.111-.308.29-.308h3.605c.179 0 .316.146.29.308l-.279 1.728c-.085.527-.579.917-1.161.917H5.891c-.582 0-1.076-.39-1.161-.917l-.279-1.728z"/><path fill="#f58b3d" style="fill:var(--color1,#f58b3d)" d="M1.492 29.93c0 1.143.099 2.07 1.422 2.07s1.422-.927 1.422-2.07z"/><path fill="#f58b3d" style="fill:var(--color1,#f58b3d)" d="M3.307 29.217a2.258 2.258 0 0 0-.13.234 2.988 2.988 0 0 1 .036-.496c.046-.286.117-.571.183-.855.048-.204.045-.571.225-.734.05-.035.061.034.061.064.001.006 0-.122-.048-.1-.286.135-.378.56-.47.772-.134.31-.247.628-.294.951a2.023 2.023 0 0 0-.02.244l-.029-.065a4.385 4.385 0 0 0-.665-1.018c-.068-.078-.928-.852-.995-.734a.087.087 0 0 0 .042.043c.001.001.001 0 .001-.001.05.075.194.19.239.255.113.164.2.339.289.51.188.362.362.727.531 1.094.039.085.08.17.122.255-.431-.569-1.006-1.085-1.797-1.38.27.126.447.362.63.544.22.219.452.431.673.649.26.258.566.529.816.814.242.466.478.932.623 1.421-.06-.169-.005-.403-.015-.58a3.53 3.53 0 0 0-.051-.421.794.794 0 0 1 .069.185 9.438 9.438 0 0 0-.037-.294c.035-.091.069-.176.092-.246.118-.359.258-.712.449-1.057.177-.318.379-.633.6-.938l.311-.425c.068-.093.132-.241.227-.33-.611.511-1.278 1.026-1.666 1.639zM40.356 5.894c-.175-.534-.586-.953-1.013-1.336-.831-.746-1.277-1.207-1.574-2.299-.174-.642-.351-1.322-.904-1.788-.402-.339-1.094-.624-1.632-.381-.827.452-1.05 1.379-.966 2.209.103 1.029.629 1.664 1.638 2.043.569.213.947.495 1.255.986.247.392.391.884.701 1.24.464.532 1.044.768 1.76.68-.67-1.128-1.453-2.267-2.398-3.217-.088-.095-.61-.461-.505-.624.116-.179.651.494.647.49.274.288.528.595.778.904l-.002.001c.257.317.512.639.761.965.101.138.199.278.294.421.138.21.358.806.584.936a.37.37 0 0 0 .135.049c.154.231.304.464.447.7.373.616.693 1.266.84 1.961.043.203.013.962.164 1.108.277.268.196-.248.179-.404-.138-1.289-.644-2.388-1.378-3.472.226-.27.258-.956.187-1.173zM30.878 6.517c.292-.315.993-.368 1.422-.347.531.026 1.076.144 1.581.287.832.235 1.64.665 2.373 1.081.088.05 1.176.649 1.08.754s-1.163-.607-1.401-.729c-.508-.261-.973-.571-1.533-.744a5.95 5.95 0 0 0-1.802-.245c-.078.001-.333-.049-.339.057-.005.104.417.05.491.05.307.003.617.029.92.078a4.572 4.572 0 0 1 1.588.558c-.136.289-.461.422-.802.35-.295-.062-.583-.216-.871-.261a1.438 1.438 0 0 0-.591.039c-.509.135-.802.412-1.362.22-.439-.151-1.172-.694-.753-1.146zM29.623 1.449c-.648-.043-1.371.43-1.684.922-.252.397-.21.918-.054 1.34.104.282.332.685.711.689.474.005.497-.526.506-.836.012-.413.07-.772.429-1.053.044-.035.091-.067.137-.1.041-.029.083-.058.122-.088l.019-.015c.127-.097.26-.198.277-.357.023-.231-.12-.272-.34-.229-.007.001-.026.008-.053.017-.112.038-.352.121-.306.022.017-.037.079-.066.158-.088.204-.02.446-.043.516-.029.753.149 1.046 1.093 1.124 1.693.009.068.016.136.022.204h.138c-.01-.16-.022-.32-.052-.479-.111-.594-.458-1.466-1.219-1.563a2.175 2.175 0 0 0-.256.002.496.496 0 0 0-.196-.052z"/></symbol></defs></svg>