<svg aria-hidden="true" style="width:0;height:0;position:absolute;overflow:hidden" xmlns="http://www.w3.org/2000/svg"><defs><symbol id="icon-modal-cross" viewBox="0 0 20 20"><path d="M10 8.586 2.929 1.515 1.515 2.929 8.586 10l-7.071 7.071 1.414 1.414L10 11.414l7.071 7.071 1.414-1.414L11.414 10l7.071-7.071-1.414-1.414L10 8.586z"/></symbol><symbol id="icon-btn" viewBox="0 0 32 32"><path d="M21.177 14.541a.194.194 0 0 0-.143-.231h-.001l-1.69-.39a.193.193 0 0 0-.088.376h.001l1.503.347-.347 1.502a.193.193 0 0 0 .376.088v-.001l.39-1.691zm-9.894 6.249 9.809-6.129-.204-.327-9.809 6.129.204.327zm17.38-3.671c.009-.15.038-.291.087-.422a.955.955 0 0 1 .181-.306l.188.122a1.097 1.097 0 0 0-.242.633v.003c-.01.173.009.299.058.379a.26.26 0 0 0 .212.127.193.193 0 0 0 .16-.057.37.37 0 0 0 .096-.161c.025-.068.047-.145.065-.229s.04-.169.063-.254a.958.958 0 0 1 .093-.224.48.48 0 0 1 .159-.161.444.444 0 0 1 .253-.048c.099.006.187.039.262.099s.132.145.169.253c.04.111.056.244.046.399a1.315 1.315 0 0 1-.072.36l.003-.009a.952.952 0 0 1-.138.284l-.191-.119a.82.82 0 0 0 .133-.253c.031-.091.049-.183.054-.275.009-.164-.012-.287-.066-.369a.256.256 0 0 0-.208-.127.213.213 0 0 0-.166.053.475.475 0 0 0-.102.161l-.001.003c-.025.07-.047.147-.066.229a2.964 2.964 0 0 1-.067.25.99.99 0 0 1-.096.232l.003-.005a.397.397 0 0 1-.395.214.441.441 0 0 1-.272-.106.565.565 0 0 1-.165-.267 1.17 1.17 0 0 1-.039-.409zm1.546 2.378a.841.841 0 0 1-.166.362.593.593 0 0 1-.302.203l-.004.001a.886.886 0 0 1-.448.003l-1.035-.222.052-.241 1.011.217c.188.04.339.023.455-.051.117-.072.194-.193.23-.362.027-.127.025-.243-.007-.349s-.092-.197-.173-.264l-.001-.001a.752.752 0 0 0-.33-.149l-.936-.201.052-.241 2.517.54-.052.241-1.225-.263.102-.028a.652.652 0 0 1 .242.332l.001.005a.877.877 0 0 1 .017.469zm-2.443 1.648a.957.957 0 0 1 .289-.395.902.902 0 0 1 .425-.18l.005-.001a.95.95 0 0 1 .492.071c.169.069.302.168.4.295s.157.27.177.429a.957.957 0 0 1-.071.485.941.941 0 0 1-.291.398.83.83 0 0 1-.423.181h-.004a.935.935 0 0 1-.492-.071.95.95 0 0 1-.4-.295.86.86 0 0 1-.18-.426v-.004a.977.977 0 0 1 .072-.488zm.203.083a.707.707 0 0 0-.053.357.641.641 0 0 0 .14.316.769.769 0 0 0 .312.226c.133.054.26.074.381.059a.612.612 0 0 0 .32-.129l-.001.001c.094-.071.166-.167.215-.287a.67.67 0 0 0-.089-.674l.001.001a.76.76 0 0 0-.312-.226c-.131-.054-.258-.073-.381-.059s-.233.061-.325.131l.002-.001a.68.68 0 0 0-.209.28l-.002.005zm-1.254 1.962a.804.804 0 0 1 .751-.392h-.003c.157.011.32.07.488.176s.29.227.366.362c.078.137.113.278.106.424s-.053.286-.139.421a.914.914 0 0 1-.348.33.81.81 0 0 1-.452.101h.002a.965.965 0 0 1-.471-.158.968.968 0 0 1-.348-.359.837.837 0 0 1-.103-.405l.001-.046v.002a.915.915 0 0 1 .148-.456zm-.053-1.145 2.11 1.331-.126.2-.464-.293-.295-.215-.33-.167-1.027-.648.132-.208zm.247 1.247a.7.7 0 0 0-.112.34v.019c0 .117.03.227.084.323l-.002-.003c.06.109.149.201.269.276s.24.116.362.122l.038.001a.66.66 0 0 0 .307-.075l-.004.002a.672.672 0 0 0 .261-.245.684.684 0 0 0 .111-.343v-.022a.65.65 0 0 0-.084-.322l.002.003c-.059-.106-.148-.196-.268-.272s-.24-.117-.363-.127l-.038-.001a.66.66 0 0 0-.307.075l.004-.002a.714.714 0 0 0-.259.247l-.002.003zm-.921 3.674a.83.83 0 0 1-.342.205.586.586 0 0 1-.372-.006l.004.001a.892.892 0 0 1-.372-.25l-.729-.767.178-.17.712.749c.132.139.267.21.404.214.137.007.269-.05.395-.169a.689.689 0 0 0 .191-.292.535.535 0 0 0 .006-.317.765.765 0 0 0-.188-.309l-.66-.694.178-.17 1.255 1.32-.171.163-.344-.362.092.041a.648.648 0 0 1 .01.42l.001-.005a.865.865 0 0 1-.251.396zm-2.926-.029a.956.956 0 0 1 .519-.168c.145 0 .283.034.405.095l-.005-.002a.947.947 0 0 1 .369.334.937.937 0 0 1 .169.526.877.877 0 0 1-.097.402l.002-.005a.955.955 0 0 1-.33.362.961.961 0 0 1-.537.171.841.841 0 0 1-.387-.094l.005.002a.951.951 0 0 1-.369-.334.953.953 0 0 1-.167-.469c-.002-.02-.002-.042-.002-.065 0-.143.035-.278.096-.397l-.002.005a.97.97 0 0 1 .333-.364zm.121.182a.632.632 0 0 0-.304.611v-.003c.01.124.055.244.133.362.08.119.174.206.283.262a.607.607 0 0 0 .338.072h-.002c.118-.006.231-.046.339-.118a.662.662 0 0 0 .303-.608.748.748 0 0 0-.133-.362.765.765 0 0 0-.283-.262.648.648 0 0 0-.304-.074l-.038.001h.002a.677.677 0 0 0-.336.12l.002-.001zm-1.586.713 1.332 1.42-.218.09-1.224-1.322.099-.041.054 1.807-.195.081-1.234-1.318.099-.041.06 1.804-.208.086-.059-1.947.215-.089 1.172 1.235-.067.028-.041-1.703.215-.089zm-3.699 1.11a1.34 1.34 0 0 1 .44 0l-.008-.001a.937.937 0 0 1 .336.115l-.081.209a1.106 1.106 0 0 0-.678-.107l.006-.001c-.172.025-.291.07-.359.134a.263.263 0 0 0-.082.233c.01.067.039.115.088.145a.376.376 0 0 0 .177.061c.072.01.151.016.238.018s.174.005.261.011a.94.94 0 0 1 .238.046.473.473 0 0 1 .19.123c.05.056.083.135.098.238.014.098 0 .19-.044.276s-.115.158-.214.217a.994.994 0 0 1-.381.126 1.27 1.27 0 0 1-.363.003l.007.001a.937.937 0 0 1-.306-.078l.078-.211c.088.043.18.069.274.079.095.012.189.011.28-.003.163-.024.278-.07.348-.139a.257.257 0 0 0 .082-.23.212.212 0 0 0-.086-.152.465.465 0 0 0-.179-.067h-.003a2.063 2.063 0 0 0-.236-.018h-.002a2.75 2.75 0 0 1-.258-.015.948.948 0 0 1-.248-.047l.007.002a.395.395 0 0 1-.289-.343.449.449 0 0 1 .049-.288.569.569 0 0 1 .228-.216c.104-.057.235-.098.392-.121zm-2.053 1.996a.823.823 0 0 1-.388-.09.59.59 0 0 1-.26-.256l-.002-.003a.888.888 0 0 1-.094-.438l.008-1.058.246.002-.008 1.034c-.002.192.046.337.142.435.094.1.228.151.401.152a.703.703 0 0 0 .341-.077.537.537 0 0 0 .224-.224.763.763 0 0 0 .079-.353l.007-.958.246.002-.02 2.574-.246-.002.01-1.252.048.094a.658.658 0 0 1-.277.305l-.003.002a.875.875 0 0 1-.455.111zm-2.085-2.053a.965.965 0 0 1 .446.201c.118.101.209.23.263.377l.002.006a.958.958 0 0 1 .033.496.947.947 0 0 1-.206.453.872.872 0 0 1-.377.26l-.006.002a.953.953 0 0 1-.489.031.964.964 0 0 1-.45-.202.85.85 0 0 1-.264-.374l-.002-.006a.934.934 0 0 1-.033-.496.95.95 0 0 1 .206-.453.867.867 0 0 1 .378-.263l.006-.002a.966.966 0 0 1 .492-.03zm-.04.215a.698.698 0 0 0-.36.022.64.64 0 0 0-.279.201l-.001.001a.755.755 0 0 0-.156.353.748.748 0 0 0 .021.385.615.615 0 0 0 .19.285l.001.001c.089.077.198.128.325.151s.247.014.358-.026a.636.636 0 0 0 .282-.198l.001-.001a.753.753 0 0 0 .156-.352.773.773 0 0 0-.021-.385.677.677 0 0 0-.193-.289l-.001-.001a.67.67 0 0 0-.318-.146l-.004-.001zm-2.176-.823a.868.868 0 0 1 .363.249.816.816 0 0 1 .176.402c.021.156-.003.327-.072.514s-.162.331-.279.433c-.118.104-.249.168-.393.191s-.291.007-.441-.049a.913.913 0 0 1-.395-.272.821.821 0 0 1-.192-.415l-.001-.005a.96.96 0 0 1 .057-.493.957.957 0 0 1 .28-.414.852.852 0 0 1 .414-.192l.005-.001a.921.921 0 0 1 .477.051zm1.109-.288-.868 2.339-.221-.082.191-.514.149-.333.095-.357.422-1.139.231.086zm-1.169.499a.7.7 0 0 0-.356-.04.658.658 0 0 0-.315.151l.001-.001c-.094.081-.166.188-.215.32s-.064.259-.044.38a.656.656 0 0 0 .435.524.658.658 0 0 0 .675-.114l-.001.001c.091-.08.161-.186.21-.318s.066-.259.049-.381a.663.663 0 0 0-.142-.32l.001.001a.712.712 0 0 0-.293-.202l-.005-.002zm-3.787-.153a.82.82 0 0 1-.27-.293.584.584 0 0 1-.07-.364v.003a.879.879 0 0 1 .17-.414l.604-.869.202.141-.59.849c-.109.158-.152.304-.128.439.021.136.103.253.246.352a.687.687 0 0 0 .386.131.536.536 0 0 0 .253-.063l-.003.001a.766.766 0 0 0 .265-.247l.546-.787.202.141-1.039 1.496-.194-.135.285-.41-.022.099a.643.643 0 0 1-.406.095h.003a.874.874 0 0 1-.439-.165zm-.562-2.866c.125.123.21.263.256.418a.898.898 0 0 1 .003.466.95.95 0 0 1-.252.429.94.94 0 0 1-.425.258.865.865 0 0 1-.47 0l.006.001a.94.94 0 0 1-.421-.25.947.947 0 0 1-.258-.42.842.842 0 0 1-.004-.47l-.001.006a.942.942 0 0 1 .252-.429.95.95 0 0 1 .425-.258.862.862 0 0 1 .472-.002l-.006-.001a.966.966 0 0 1 .424.252zm-.153.155a.69.69 0 0 0-.31-.184.635.635 0 0 0-.351.011l.005-.001a.755.755 0 0 0-.327.204.746.746 0 0 0-.199.33.613.613 0 0 0-.002.348l-.001-.004c.03.114.092.217.184.308a.663.663 0 0 0 .66.173l-.005.001a.739.739 0 0 0 .327-.204.773.773 0 0 0 .199-.33.656.656 0 0 0 .002-.349.686.686 0 0 0-.184-.303zm-1.017-1.4-1.116 1.595-.133-.195 1.042-1.469.061.089-1.757.424-.12-.175 1.037-1.478.061.089-1.753.43-.127-.186 1.894-.458.131.192-.967 1.401-.041-.06 1.659-.39.131.192zm-1.849-3.388c.048.124.081.268.09.418v.004a.95.95 0 0 1-.043.353l-.221-.037a1.106 1.106 0 0 0-.036-.687l.003.008c-.061-.163-.129-.27-.205-.323a.257.257 0 0 0-.245-.031.19.19 0 0 0-.123.116.382.382 0 0 0-.024.186c.005.072.015.151.032.236s.031.171.044.258a.94.94 0 0 1 .005.242.48.48 0 0 1-.082.213l.001-.002a.44.44 0 0 1-.213.145c-.093.035-.186.04-.28.015s-.179-.079-.257-.164a1.01 1.01 0 0 1-.203-.347 1.303 1.303 0 0 1-.077-.344v-.005a.922.922 0 0 1 .013-.316l.223.032a.766.766 0 0 0-.02.289v-.004c.008.096.029.187.061.274.057.154.126.258.208.312a.256.256 0 0 0 .241.033.214.214 0 0 0 .131-.115.48.48 0 0 0 .029-.192 2.05 2.05 0 0 0-.034-.249l.002.013a2.68 2.68 0 0 1-.038-.241l-.001-.014a.952.952 0 0 1-.006-.249v.004a.391.391 0 0 1 .276-.354.426.426 0 0 1 .295-.011l-.003-.001a.567.567 0 0 1 .258.178c.078.09.144.209.2.359zm-2.368-1.555a.83.83 0 0 1 .008-.398.6.6 0 0 1 .198-.309l.001-.001a.88.88 0 0 1 .409-.182l1.037-.21.049.242-1.013.205c-.188.038-.32.114-.396.229-.079.113-.101.254-.066.424a.69.69 0 0 0 .146.317.533.533 0 0 0 .265.173.756.756 0 0 0 .362.005l.939-.19.049.242-2.523.511-.049-.242 1.228-.249-.082.066a.65.65 0 0 1-.357-.21l-.001-.001a.86.86 0 0 1-.202-.423zm1.578-2.46a.952.952 0 0 1-.105.478.907.907 0 0 1-.317.336l-.004.002a.942.942 0 0 1-.479.134.939.939 0 0 1-.485-.108.875.875 0 0 1-.333-.317l-.002-.004a.954.954 0 0 1-.131-.472.953.953 0 0 1 .105-.482.848.848 0 0 1 .314-.336l.004-.002a.925.925 0 0 1 .479-.134.95.95 0 0 1 .485.108.877.877 0 0 1 .336.317l.002.004a.961.961 0 0 1 .131.475zm-.218.006a.706.706 0 0 0-.096-.348.643.643 0 0 0-.252-.231l-.004-.002a.76.76 0 0 0-.377-.08.748.748 0 0 0-.372.1.617.617 0 0 0-.24.246c-.057.104-.084.22-.081.349a.663.663 0 0 0 .353.58.75.75 0 0 0 .377.08.763.763 0 0 0 .372-.1.671.671 0 0 0 .242-.246l.002-.003a.69.69 0 0 0 .078-.346zm.352-2.318a.853.853 0 0 1-.169.407.825.825 0 0 1-.351.254l-.006.002c-.148.053-.321.065-.517.036s-.357-.09-.482-.183c-.126-.094-.216-.208-.268-.345s-.067-.283-.044-.441a.91.91 0 0 1 .185-.443.825.825 0 0 1 .365-.273l.006-.002a.963.963 0 0 1 .494-.047.96.96 0 0 1 .463.188c.122.095.217.22.273.364l.002.006a.916.916 0 0 1 .049.477zm.512 1.026-2.468-.363.034-.233.542.08.357.077.369.019 1.201.177-.036.244zm-.731-1.041a.693.693 0 0 0-.035-.356.663.663 0 0 0-.21-.275l-.002-.001c-.099-.075-.218-.123-.358-.144s-.266-.009-.381.035a.665.665 0 0 0-.423.534.677.677 0 0 0 .04.365l-.002-.005a.663.663 0 0 0 .21.275l.002.001c.097.073.215.12.355.14s.267.01.383-.031a.668.668 0 0 0 .282-.203l.001-.001a.693.693 0 0 0 .136-.33v-.004zm-.628-3.766a.842.842 0 0 1 .231-.324.585.585 0 0 1 .337-.143h.002a.872.872 0 0 1 .44.081l.975.412-.096.227-.952-.403c-.177-.075-.329-.086-.456-.035-.129.049-.227.153-.294.313a.703.703 0 0 0-.059.344c.01.107.05.205.121.292.07.085.168.154.296.208l.882.373-.096.227-1.678-.709.092-.217.46.195-.101-.001a.649.649 0 0 1-.176-.373v-.003a.86.86 0 0 1 .072-.463zm2.689-1.136a.975.975 0 0 1-.357.335.893.893 0 0 1-.41.099l-.048-.001h.002a.958.958 0 0 1-.471-.16.94.94 0 0 1-.339-.364.862.862 0 0 1-.097-.399l.002-.057v.003a.94.94 0 0 1 .159-.463.955.955 0 0 1 .359-.338.831.831 0 0 1 .456-.099h-.002a.939.939 0 0 1 .471.16.95.95 0 0 1 .339.364.861.861 0 0 1 .099.403l-.002.055v-.002a.956.956 0 0 1-.161.466zm-.183-.118a.7.7 0 0 0 .118-.341l.001-.027a.635.635 0 0 0-.082-.313l.002.003a.752.752 0 0 0-.266-.279.755.755 0 0 0-.417-.13.62.62 0 0 0-.288.071l.003-.002c-.106.053-.194.133-.264.242s-.108.222-.113.34c-.007.117.018.229.075.338s.145.201.266.279a.766.766 0 0 0 .409.13c.108 0 .21-.026.3-.072l-.004.002a.677.677 0 0 0 .259-.241zm1.158-1.28-1.788-.77.164-.17 1.65.723-.075.078-.771-1.635.147-.152 1.657.716-.075.077-.776-1.63.157-.162.832 1.761-.161.167-1.568-.664.051-.052.718 1.545-.161.167zm2.91-2.487a1.412 1.412 0 0 1-.384.173l-.01.002a.924.924 0 0 1-.354.03l-.01-.224a1.121 1.121 0 0 0 .662-.176l-.004.003c.147-.093.238-.182.274-.267a.258.258 0 0 0-.02-.246.193.193 0 0 0-.139-.097.373.373 0 0 0-.187.016c-.07.019-.145.046-.224.08s-.161.066-.243.096a.993.993 0 0 1-.274.057.49.49 0 0 1-.188-.038l.003.001a.452.452 0 0 1-.186-.178.443.443 0 0 1-.073-.246l.001-.026v.001a.544.544 0 0 1 .107-.285c.067-.097.167-.187.298-.27.094-.06.201-.11.316-.145l.009-.002a.943.943 0 0 1 .311-.053l.014.225-.034-.001a.825.825 0 0 0-.255.041l.006-.002a1.06 1.06 0 0 0-.259.118l.004-.003c-.139.088-.226.177-.262.268a.254.254 0 0 0 .018.243.217.217 0 0 0 .14.105c.058.01.123.006.194-.012.072-.021.146-.047.224-.08.08-.034.16-.064.242-.091a.997.997 0 0 1 .298-.061c.058 0 .113.013.163.035l-.002-.001a.4.4 0 0 1 .184.167c.057.09.081.184.072.283a.577.577 0 0 1-.121.29 1.17 1.17 0 0 1-.31.269zm1.069-2.66a.826.826 0 0 1 .391-.074.59.59 0 0 1 .345.132l-.001-.001a.9.9 0 0 1 .263.363l.42.972-.226.098-.41-.949c-.076-.176-.178-.29-.306-.34-.126-.054-.269-.046-.429.023a.704.704 0 0 0-.281.208.527.527 0 0 0-.114.293v.002a.756.756 0 0 0 .07.355l.38.879-.226.098-1.021-2.364.226-.098.497 1.15-.082-.067c0-.149.05-.285.134-.395l-.001.002a.865.865 0 0 1 .372-.285zm2.695 1.045a.967.967 0 0 1-.49-.004.906.906 0 0 1-.397-.244.948.948 0 0 1-.23-.441.948.948 0 0 1 .006-.497.878.878 0 0 1 .244-.393l.001-.001a.944.944 0 0 1 .435-.225.955.955 0 0 1 .493.004.846.846 0 0 1 .396.24l.001.001a.934.934 0 0 1 .23.441.95.95 0 0 1-.006.497.869.869 0 0 1-.244.397l-.001.001a.966.966 0 0 1-.438.226zM12.9 3.88a.704.704 0 0 0 .321-.166.647.647 0 0 0 .174-.294l.001-.004a.76.76 0 0 0 .001-.385.75.75 0 0 0-.175-.344.612.612 0 0 0-.286-.183l-.004-.001c-.113-.035-.232-.037-.359-.007a.67.67 0 0 0-.495.46l-.001.005a.752.752 0 0 0-.001.386.765.765 0 0 0 .175.344.668.668 0 0 0 .294.187.684.684 0 0 0 .354.005zm2.292-.131a.85.85 0 0 1-.433-.081.821.821 0 0 1-.322-.293l-.002-.003c-.082-.134-.13-.3-.142-.499s.014-.368.08-.509c.066-.143.159-.254.282-.334s.264-.124.423-.134a.91.91 0 0 1 .471.089.821.821 0 0 1 .346.305.96.96 0 0 1 .147.474c.012.185-.018.349-.088.492s-.174.26-.302.344l-.003.002a.917.917 0 0 1-.457.147zm-.898.713-.154-2.49.236-.015.034.547-.002.365.057.365.075 1.212-.246.015zm.867-.93a.691.691 0 0 0 .341-.108.67.67 0 0 0 .225-.26l.002-.004c.053-.112.076-.239.067-.38s-.046-.262-.113-.365a.668.668 0 0 0-.254-.233l-.004-.002a.667.667 0 0 0-.352-.069.684.684 0 0 0-.347.113l.003-.002a.67.67 0 0 0-.225.26l-.002.004c-.051.11-.072.235-.064.376s.045.264.11.369c.064.1.151.179.254.233l.004.002a.704.704 0 0 0 .301.067l.057-.002h-.002zm3.64-1.395a.828.828 0 0 1 .365.159.587.587 0 0 1 .21.302.888.888 0 0 1 .012.448l-.202 1.039-.242-.047.198-1.015c.037-.188.017-.34-.06-.454-.074-.116-.196-.19-.367-.223-.127-.025-.243-.02-.349.013s-.195.096-.26.178l-.001.001a.77.77 0 0 0-.143.333l-.183.94-.242-.047.348-1.788.232.045-.095.49-.02-.099a.658.658 0 0 1 .327-.249l.005-.001a.86.86 0 0 1 .468-.025zm1.655 2.39a.973.973 0 0 1-.402-.28.895.895 0 0 1-.189-.421l-.001-.005a.95.95 0 0 1 .06-.494.939.939 0 0 1 .286-.407.864.864 0 0 1 .42-.186l.005-.001a.952.952 0 0 1 .486.06.965.965 0 0 1 .405.281.843.843 0 0 1 .191.423.934.934 0 0 1-.06.494.96.96 0 0 1-.286.407.863.863 0 0 1-.421.189l-.005.001a.961.961 0 0 1-.489-.061zm.079-.204a.704.704 0 0 0 .358.045.642.642 0 0 0 .314-.148l-.001.001a.767.767 0 0 0 .219-.318.753.753 0 0 0 .05-.382.619.619 0 0 0-.136-.317l.001.001c-.073-.093-.171-.162-.292-.209a.66.66 0 0 0-.672.104l.001-.001a.752.752 0 0 0-.218.317.758.758 0 0 0-.05.382.663.663 0 0 0 .137.32c.074.09.171.158.29.204zm1.531.891.391-1.907.2.126-.374 1.762-.091-.057 1.445-1.086.179.113-.365 1.768-.091-.057 1.439-1.09.191.12-1.556 1.172-.197-.124.332-1.67.062.039-1.368 1.016-.197-.124zm3.029 2.351a1.458 1.458 0 0 1-.248-.343l-.004-.008a.962.962 0 0 1-.102-.34l.217-.055a1.083 1.083 0 0 0 .304.609c.12.125.226.196.318.214a.261.261 0 0 0 .237-.069.196.196 0 0 0 .067-.156.384.384 0 0 0-.053-.18 1.834 1.834 0 0 0-.128-.209l.004.006a4.12 4.12 0 0 1-.143-.219.946.946 0 0 1-.099-.213l-.002-.007a.479.479 0 0 1-.01-.229v.003a.441.441 0 0 1 .136-.218.453.453 0 0 1 .247-.125h.003a.538.538 0 0 1 .301.047.992.992 0 0 1 .324.237c.082.085.152.181.211.288.06.106.099.204.115.294l-.217.06a.787.787 0 0 0-.098-.273l.002.004a1.037 1.037 0 0 0-.166-.227c-.114-.118-.219-.186-.315-.202a.255.255 0 0 0-.234.067.212.212 0 0 0-.074.158.466.466 0 0 0 .051.187c.035.066.076.134.124.204.05.071.096.144.138.218a.971.971 0 0 1 .104.223.39.39 0 0 1-.11.435.448.448 0 0 1-.263.128.557.557 0 0 1-.308-.06 1.164 1.164 0 0 1-.327-.249zm2.802.481a.835.835 0 0 1 .161.461.586.586 0 0 1-.067.273l.002-.003a.875.875 0 0 1-.301.331l-.865.61-.142-.201.845-.596c.157-.111.247-.234.27-.369.027-.135-.01-.273-.11-.415a.704.704 0 0 0-.261-.232.534.534 0 0 0-.312-.051.747.747 0 0 0-.333.142l-.783.552-.142-.201 2.104-1.484.142.201-1.024.722.049-.094a.656.656 0 0 1 .416.05l-.004-.002c.136.06.254.162.355.306zm-.455 2.879a.958.958 0 0 1-.096-.48.903.903 0 0 1 .541-.755c.165-.078.328-.11.488-.096s.305.067.436.159.234.218.31.38c.077.163.11.324.098.483a.843.843 0 0 1-.156.44l.002-.003a.945.945 0 0 1-.384.316.952.952 0 0 1-.488.096.862.862 0 0 1-.442-.159l.003.002a.97.97 0 0 1-.311-.383zm.198-.093a.699.699 0 0 0 .228.28.627.627 0 0 0 .327.11h.002a.76.76 0 0 0 .377-.078.74.74 0 0 0 .3-.242.66.66 0 0 0 .053-.674.672.672 0 0 0-.555-.389h-.002a.747.747 0 0 0-.377.078.75.75 0 0 0-.3.242.665.665 0 0 0-.122.323v.003a.654.654 0 0 0 .07.352l-.002-.004zm.595 2.218a.844.844 0 0 1-.009-.44.83.83 0 0 1 .223-.378c.114-.108.267-.189.459-.242s.363-.062.515-.026c.153.034.282.104.384.207s.176.232.218.386a.923.923 0 0 1 .01.48.815.815 0 0 1-.228.401.966.966 0 0 1-.434.242.97.97 0 0 1-.5.015.857.857 0 0 1-.401-.228.917.917 0 0 1-.237-.417zm-.882-.733 2.406-.662.062.227-.529.145-.358.073-.345.131-1.171.322-.065-.238zm1.088.658a.687.687 0 0 0 .176.312.669.669 0 0 0 .305.168c.121.029.249.025.385-.012s.248-.099.334-.185a.66.66 0 0 0 .172-.659.663.663 0 0 0-.481-.481l-.005-.001c-.118-.028-.245-.023-.381.015s-.249.098-.338.183a.66.66 0 0 0-.177.3.715.715 0 0 0 .009.361z"/></symbol><symbol id="icon-burger" viewBox="0 0 32 32"><path d="M4 5.333h24V8H4V5.333zm8 9.334h16v2.667H12v-2.667zM4 24h24v2.667H4V24z"/></symbol><symbol id="icon-burger-cross" viewBox="0 0 32 32"><path fill="none" stroke="#fff" style="stroke:var(--color1,#fff)" stroke-linejoin="round" stroke-linecap="round" stroke-width="2.667" d="M24 8 8 24M8 8l16 16"/></symbol><symbol id="icon-facebook" viewBox="0 0 32 32"><path fill="none" stroke="#fff" style="stroke:var(--color1,#fff)" stroke-linejoin="round" stroke-linecap="round" stroke-width="2.286" d="M24 2.666h-4.001a6.666 6.666 0 0 0-6.666 6.666v4.001h-4v5.333h4v10.667h5.334V18.666h4l1.334-5.333h-5.334v-4c0-.737.597-1.334 1.334-1.334v0h4V2.665z"/></symbol><symbol id="icon-instagram" viewBox="0 0 32 32"><path fill="none" stroke="#fff" style="stroke:var(--color1,#fff)" stroke-linejoin="round" stroke-linecap="round" stroke-width="2.286" d="M22.667 2.666H9.333a6.666 6.666 0 0 0-6.666 6.666V22.667a6.666 6.666 0 0 0 6.666 6.666h13.334a6.666 6.666 0 0 0 6.666-6.666v-.001 0V9.332a6.666 6.666 0 0 0-6.666-6.666h-.001 0z"/><path fill="none" stroke="#fff" style="stroke:var(--color1,#fff)" stroke-linejoin="round" stroke-linecap="round" stroke-width="2.286" d="M21.334 15.16a5.334 5.334 0 0 1-10.549 1.594l-.004-.03A5.334 5.334 0 0 1 21.33 15.13l.004.03zm1.999-6.494h.014"/></symbol><symbol id="icon-logo" viewBox="0 0 32 32"><path d="M13.081 28.274v-4.068l-.105-.666v-6.803c0-1.566-.444-2.77-1.333-3.612-.865-.842-2.162-1.262-3.893-1.262-1.192 0-2.326.199-3.402.596s-1.987.924-2.735 1.578L.491 12.178c.935-.795 2.057-1.403 3.367-1.824a12.793 12.793 0 0 1 4.138-.666c2.385 0 4.22.596 5.506 1.789 1.309 1.169 1.964 2.958 1.964 5.365v11.432h-2.385zm-6.348.175c-1.38 0-2.583-.222-3.612-.666-1.005-.468-1.777-1.099-2.315-1.894-.538-.818-.807-1.753-.807-2.805 0-.959.222-1.824.666-2.595.468-.795 1.216-1.426 2.244-1.894 1.052-.491 2.455-.736 4.208-.736h6.347v1.859H7.187c-1.777 0-3.016.316-3.717.947-.678.631-1.017 1.415-1.017 2.35 0 1.052.409 1.894 1.227 2.525s1.964.947 3.437.947c1.403 0 2.607-.316 3.612-.947 1.029-.654 1.777-1.59 2.244-2.805l.561 1.718c-.468 1.216-1.286 2.186-2.455 2.911-1.145.725-2.595 1.087-4.348 1.087z"/><path d="M23.391 28.449c-1.917 0-3.601-.398-5.05-1.192-1.45-.818-2.584-1.929-3.402-3.332-.818-1.426-1.227-3.051-1.227-4.875s.386-3.437 1.157-4.839c.795-1.403 1.87-2.502 3.226-3.296 1.379-.818 2.922-1.227 4.629-1.227 1.73 0 3.261.398 4.594 1.192 1.356.771 2.42 1.87 3.191 3.296.771 1.403 1.157 3.028 1.157 4.875 0 .117-.012.245-.035.386v.386H15.605v-1.859h14.694l-.982.736c0-1.333-.292-2.513-.877-3.542-.561-1.052-1.333-1.87-2.315-2.455s-2.116-.877-3.402-.877c-1.262 0-2.396.292-3.402.877s-1.788 1.403-2.35 2.455-.842 2.256-.842 3.612v.386c0 1.403.304 2.642.912 3.717a6.811 6.811 0 0 0 2.595 2.49c1.122.584 2.396.877 3.822.877 1.122 0 2.162-.199 3.121-.596a6.489 6.489 0 0 0 2.525-1.824l1.403 1.613c-.818.982-1.847 1.73-3.086 2.244-1.216.514-2.56.771-4.033.771zM29.633 5.918H17.359v-2.63h12.274v2.63z"/></symbol><symbol id="icon-slider-left" viewBox="0 0 32 32"><path fill="none" stroke="#000" style="stroke:var(--color2,#000)" stroke-width=".33" d="M31.835 16c0 5.739-4.653 10.392-10.392 10.392S11.051 21.739 11.051 16 15.704 5.608 21.443 5.608 31.835 10.261 31.835 16z"/><path d="M.213 15.883c-.03.03-.048.071-.048.117s.019.087.048.117l1.05 1.049a.165.165 0 0 0 .234-.234l-.933-.933.933-.933a.165.165 0 0 0-.234-.234l-1.05 1.049zm.117.282h21.773v-.33H.33v.33z"/></symbol><symbol id="icon-slider-right" viewBox="0 0 32 32"><path fill="none" stroke="#000" style="stroke:var(--color2,#000)" stroke-width=".33" d="M20.948 16c0 5.739-4.653 10.392-10.392 10.392S.164 21.739.164 16 4.817 5.608 10.556 5.608 20.948 10.261 20.948 16z"/><path d="M31.787 16.117c.03-.03.048-.071.048-.117s-.019-.087-.048-.117l-1.05-1.049a.165.165 0 1 0-.234.234l.933.933-.933.933a.165.165 0 0 0 .234.234l1.05-1.049zm-21.89.048H31.67v-.33H9.897v.33z"/></symbol><symbol id="icon-tel" viewBox="0 0 32 32"><path d="m26.331 6.267-3.346-3.344c-.392-.394-.934-.638-1.534-.638s-1.142.244-1.534.638l-3.606 3.599c-.394.393-.638.936-.638 1.537s.244 1.144.638 1.537l2.816 2.818a12.813 12.813 0 0 1-2.715 4 12.798 12.798 0 0 1-3.916 2.69l-.082.032-2.815-2.819c-.392-.394-.934-.638-1.534-.638s-1.142.244-1.534.638l-3.608 3.599c-.394.393-.638.936-.638 1.537s.244 1.144.638 1.537l3.344 3.343a3.765 3.765 0 0 0 2.647 1.097c.205 0 .402-.016.603-.05 4.16-.686 8.29-2.901 11.625-6.232 3.331-3.337 5.544-7.466 6.235-11.63a3.732 3.732 0 0 0-1.047-3.249zM25.15 9.143c-.613 3.705-2.606 7.4-5.607 10.401s-6.694 4.994-10.4 5.606a1.474 1.474 0 0 1-1.281-.415l-3.285-3.283 3.482-3.486 3.793 3.8.679-.251c4.177-1.566 7.414-4.803 8.945-8.876l.034-.104.251-.679-3.797-3.794 3.482-3.483 3.285 3.283c.339.339.496.817.417 1.282z"/></symbol></defs></svg>