<svg width="166" height="166" viewBox="0 0 166 166" fill="none" xmlns="http://www.w3.org/2000/svg">
<path d="M109.857 75.4298C109.981 74.8917 109.646 74.3547 109.108 74.2305L100.339 72.2059C99.8004 72.0817 99.2634 72.4172 99.1392 72.9553C99.0149 73.4935 99.3505 74.0304 99.8886 74.1547L107.684 75.9543L105.884 83.7492C105.76 84.2874 106.095 84.8243 106.633 84.9485C107.172 85.0728 107.708 84.7373 107.833 84.1991L109.857 75.4298ZM58.5299 107.848L109.413 76.0529L108.353 74.3568L57.4701 106.152L58.5299 107.848Z" fill="black"/>
<path d="M148.689 88.8033C148.734 88.0247 148.884 87.2941 149.14 86.6118C149.408 85.9301 149.721 85.4014 150.08 85.0255L151.053 85.6588C150.743 86.0255 150.463 86.5021 150.212 87.0886C149.974 87.6758 149.836 88.2988 149.798 88.9577C149.746 89.8562 149.846 90.5111 150.098 90.9224C150.363 91.3344 150.729 91.554 151.196 91.581C151.544 91.6011 151.82 91.503 152.025 91.2864C152.241 91.0826 152.407 90.8038 152.524 90.4499C152.652 90.0968 152.766 89.7006 152.863 89.2616C152.961 88.8225 153.07 88.3841 153.192 87.9464C153.313 87.5206 153.473 87.1333 153.674 86.7843C153.886 86.436 154.161 86.1574 154.498 85.9485C154.834 85.7516 155.271 85.6688 155.81 85.7C156.325 85.7299 156.778 85.9004 157.169 86.2115C157.559 86.5226 157.853 86.9603 158.048 87.5245C158.255 88.1015 158.336 88.7913 158.289 89.5939C158.254 90.2049 158.134 90.811 157.931 91.4123C157.74 92.0142 157.501 92.5052 157.215 92.8853L156.223 92.2689C156.535 91.8663 156.764 91.4288 156.912 90.9566C157.071 90.485 157.165 90.0096 157.193 89.5304C157.242 88.6798 157.129 88.0422 156.853 87.6176C156.588 87.2056 156.228 86.9864 155.773 86.96C155.414 86.9392 155.126 87.0307 154.91 87.2345C154.693 87.4504 154.514 87.7345 154.374 88.0869C154.244 88.4521 154.131 88.8482 154.034 89.2753C153.937 89.7144 153.822 90.1465 153.689 90.5715C153.567 91.0092 153.406 91.4025 153.206 91.7515C153.016 92.1132 152.754 92.3925 152.418 92.5894C152.093 92.7989 151.673 92.8888 151.158 92.859C150.607 92.827 150.137 92.6435 149.748 92.3085C149.37 91.9861 149.084 91.5248 148.89 90.9246C148.708 90.337 148.641 89.63 148.689 88.8033Z" fill="black"/>
<path d="M156.709 101.14C156.548 101.89 156.26 102.516 155.846 103.016C155.441 103.531 154.911 103.883 154.257 104.074C153.599 104.277 152.825 104.283 151.933 104.091L146.565 102.94L146.834 101.69L152.078 102.815C153.052 103.024 153.838 102.935 154.437 102.548C155.045 102.175 155.443 101.549 155.632 100.669C155.773 100.012 155.761 99.4082 155.597 98.8575C155.442 98.3211 155.141 97.8638 154.695 97.4857C154.257 97.1218 153.687 96.8644 152.983 96.7134L148.125 95.6711L148.394 94.4216L161.452 97.2235L161.184 98.473L154.831 97.1098L155.359 96.9654C155.965 97.4022 156.386 97.9836 156.623 98.7094C156.872 99.4378 156.9 100.248 156.709 101.14Z" fill="black"/>
<path d="M144.038 109.692C144.384 108.848 144.884 108.164 145.539 107.642C146.201 107.135 146.945 106.824 147.77 106.708C148.607 106.597 149.458 106.719 150.324 107.074C151.201 107.433 151.893 107.944 152.4 108.605C152.907 109.267 153.213 110.008 153.318 110.829C153.422 111.65 153.299 112.488 152.949 113.343C152.594 114.209 152.091 114.898 151.44 115.409C150.785 115.932 150.047 116.245 149.226 116.35C148.401 116.466 147.549 116.344 146.672 115.984C145.806 115.629 145.114 115.119 144.596 114.453C144.084 113.802 143.773 113.059 143.662 112.222C143.562 111.39 143.687 110.547 144.038 109.692ZM145.087 110.122C144.828 110.754 144.737 111.372 144.814 111.974C144.902 112.581 145.145 113.128 145.542 113.615C145.946 114.117 146.486 114.508 147.163 114.785C147.852 115.067 148.511 115.169 149.14 115.089C149.764 115.021 150.316 114.799 150.793 114.424C151.282 114.054 151.654 113.558 151.909 112.936C152.164 112.315 152.247 111.7 152.159 111.093C152.081 110.491 151.846 109.941 151.454 109.443C151.062 108.945 150.521 108.555 149.833 108.273C149.155 107.995 148.497 107.894 147.856 107.969C147.227 108.048 146.668 108.273 146.179 108.643C145.701 109.018 145.337 109.511 145.087 110.122Z" fill="black"/>
<path d="M138.584 120.298C139.019 119.608 139.571 119.084 140.238 118.724C140.915 118.371 141.658 118.216 142.468 118.259C143.282 118.318 144.126 118.623 144.998 119.174C145.871 119.725 146.504 120.351 146.898 121.054C147.302 121.763 147.485 122.496 147.447 123.252C147.41 124.009 147.17 124.737 146.728 125.438C146.248 126.199 145.646 126.77 144.923 127.151C144.204 127.548 143.426 127.724 142.589 127.679C141.762 127.639 140.948 127.367 140.146 126.861C139.334 126.348 138.733 125.728 138.342 124.998C137.951 124.269 137.775 123.491 137.814 122.665C137.847 121.848 138.104 121.059 138.584 120.298ZM138.311 114.358L149.256 121.265L148.602 122.3L146.197 120.782L144.666 119.667L142.956 118.801L137.628 115.439L138.311 114.358ZM139.591 120.828C139.232 121.396 139.039 121.983 139.011 122.59C138.993 123.203 139.134 123.788 139.434 124.347C139.745 124.912 140.209 125.389 140.828 125.78C141.448 126.171 142.074 126.381 142.707 126.412C143.34 126.443 143.93 126.318 144.476 126.038C145.021 125.758 145.474 125.334 145.832 124.766C146.191 124.198 146.382 123.602 146.407 122.979C146.425 122.366 146.284 121.78 145.983 121.222C145.677 120.673 145.214 120.204 144.595 119.813C143.976 119.423 143.348 119.204 142.711 119.156C142.077 119.126 141.488 119.25 140.942 119.53C140.4 119.827 139.95 120.259 139.591 120.828Z" fill="black"/>
<path d="M134.814 139.885C134.257 140.414 133.667 140.769 133.042 140.948C132.418 141.144 131.781 141.136 131.133 140.925C130.476 140.721 129.834 140.289 129.205 139.628L125.423 135.649L126.349 134.769L130.045 138.656C130.731 139.378 131.43 139.748 132.143 139.766C132.855 139.802 133.537 139.509 134.19 138.889C134.677 138.426 135.008 137.921 135.183 137.374C135.358 136.844 135.368 136.297 135.212 135.732C135.057 135.185 134.731 134.651 134.235 134.129L130.812 130.528L131.738 129.648L138.249 136.497L137.362 137.34L135.576 135.462L136.054 135.677C136.308 136.38 136.328 137.098 136.114 137.831C135.908 138.572 135.475 139.257 134.814 139.885Z" fill="black"/>
<path d="M119.632 139.736C120.391 139.229 121.188 138.943 122.023 138.875C122.855 138.825 123.646 138.983 124.395 139.348C125.151 139.724 125.788 140.301 126.308 141.079C126.835 141.868 127.123 142.678 127.174 143.51C127.224 144.342 127.063 145.127 126.691 145.866C126.319 146.605 125.748 147.231 124.98 147.744C124.201 148.264 123.399 148.554 122.574 148.615C121.738 148.682 120.951 148.529 120.212 148.157C119.463 147.791 118.825 147.214 118.299 146.426C117.779 145.647 117.49 144.837 117.433 143.995C117.373 143.17 117.53 142.379 117.906 141.624C118.288 140.878 118.864 140.249 119.632 139.736ZM120.262 140.679C119.693 141.058 119.272 141.52 119 142.062C118.734 142.615 118.629 143.204 118.686 143.83C118.74 144.472 118.97 145.097 119.377 145.706C119.79 146.325 120.279 146.777 120.845 147.063C121.401 147.356 121.982 147.48 122.588 147.436C123.2 147.403 123.786 147.199 124.345 146.826C124.904 146.453 125.316 145.99 125.582 145.438C125.855 144.895 125.968 144.308 125.92 143.675C125.873 143.043 125.643 142.418 125.23 141.799C124.824 141.19 124.334 140.738 123.761 140.442C123.195 140.156 122.606 140.03 121.994 140.064C121.388 140.107 120.811 140.312 120.262 140.679Z" fill="black"/>
<path d="M112.033 144.379L118.942 151.746L117.812 152.214L111.463 145.355L111.979 145.142L112.257 154.515L111.243 154.935L104.844 148.097L105.36 147.883L105.671 157.242L104.59 157.69L104.283 147.589L105.397 147.127L111.479 153.531L111.13 153.676L110.919 144.841L112.033 144.379Z" fill="black"/>
<path d="M92.8469 150.134C93.6186 150.02 94.3644 150.019 95.0845 150.131C95.8063 150.255 96.3876 150.455 96.8284 150.729L96.4055 151.811C95.9836 151.582 95.4601 151.404 94.8351 151.278C94.2117 151.164 93.5736 151.154 92.9206 151.251C92.0302 151.382 91.4093 151.613 91.0578 151.944C90.708 152.286 90.5673 152.689 90.6355 153.152C90.6863 153.497 90.8384 153.747 91.092 153.904C91.3354 154.074 91.6422 154.18 92.0124 154.223C92.3843 154.277 92.7951 154.308 93.2449 154.314C93.6946 154.321 94.1462 154.339 94.5994 154.369C95.0408 154.401 95.4527 154.48 95.8351 154.606C96.2192 154.743 96.5477 154.955 96.8206 155.243C97.0815 155.532 97.2514 155.943 97.3301 156.478C97.4054 156.988 97.3303 157.466 97.1049 157.912C96.8795 158.357 96.5103 158.733 95.9975 159.039C95.4745 159.359 94.8153 159.577 94.0199 159.695C93.4145 159.784 92.7967 159.79 92.1668 159.713C91.5386 159.648 91.0093 159.514 90.5791 159.31L90.9815 158.214C91.439 158.438 91.9139 158.574 92.4063 158.622C92.9004 158.683 93.3849 158.678 93.8598 158.608C94.7027 158.484 95.3041 158.244 95.6639 157.888C96.0137 157.545 96.1553 157.148 96.0888 156.697C96.0363 156.341 95.8883 156.078 95.6449 155.907C95.3896 155.739 95.0751 155.621 94.7014 155.555C94.3177 155.502 93.9068 155.472 93.469 155.464C93.0192 155.457 92.5728 155.432 92.1296 155.388C91.6764 155.358 91.2585 155.28 90.8761 155.155C90.4836 155.043 90.1569 154.842 89.8959 154.553C89.6248 154.278 89.4517 153.885 89.3764 153.374C89.2959 152.828 89.3802 152.33 89.6294 151.881C89.8684 151.446 90.2622 151.072 90.8107 150.761C91.349 150.463 92.0277 150.254 92.8469 150.134Z" fill="black"/>
<path d="M82.1935 160.489C81.4255 160.483 80.7547 160.328 80.181 160.024C79.5953 159.731 79.1427 159.284 78.8234 158.681C78.492 158.079 78.3298 157.321 78.3369 156.409L78.3793 150.92L79.6572 150.929L79.6158 156.293C79.6081 157.289 79.8543 158.041 80.3544 158.549C80.8424 159.069 81.5364 159.332 82.4364 159.339C83.1084 159.344 83.6974 159.211 84.2035 158.939C84.6976 158.679 85.0846 158.291 85.3645 157.778C85.6324 157.276 85.7691 156.665 85.7747 155.945L85.8131 150.977L87.091 150.987L86.9879 164.342L85.7099 164.332L85.7601 157.835L86.0083 158.323C85.7031 159.004 85.219 159.535 84.556 159.913C83.893 160.304 83.1055 160.496 82.1935 160.489Z" fill="black"/>
<path d="M71.3779 149.841C72.2751 150.005 73.047 150.353 73.6937 150.886C74.3264 151.429 74.7846 152.092 75.0682 152.876C75.3497 153.671 75.4063 154.529 75.2379 155.45C75.0674 156.383 74.7108 157.165 74.1682 157.798C73.6255 158.431 72.9634 158.883 72.1817 159.155C71.4001 159.427 70.5548 159.48 69.6458 159.314C68.7251 159.145 67.9473 158.796 67.3124 158.265C66.6657 157.732 66.2064 157.075 65.9346 156.293C65.651 155.509 65.5944 154.651 65.7649 153.719C65.9332 152.798 66.2898 152.015 66.8347 151.371C67.3655 150.736 68.0287 150.278 68.8243 149.996C69.6178 149.726 70.469 149.675 71.3779 149.841ZM71.174 150.956C70.5011 150.833 69.878 150.872 69.3047 151.072C68.7292 151.284 68.2442 151.634 67.8498 152.123C67.4414 152.622 67.1714 153.232 67.0398 153.952C66.906 154.683 66.9429 155.349 67.1505 155.948C67.3463 156.545 67.6769 157.038 68.1424 157.429C68.6056 157.83 69.1678 158.092 69.8289 158.213C70.4899 158.333 71.1082 158.288 71.6837 158.076C72.257 157.876 72.7468 157.532 73.153 157.045C73.5592 156.558 73.8292 155.949 73.9631 155.217C74.0947 154.497 74.0578 153.832 73.8523 153.221C73.6447 152.622 73.3093 152.121 72.846 151.719C72.3805 151.329 71.8232 151.075 71.174 150.956Z" fill="black"/>
<path d="M59.8818 146.687C60.6468 146.971 61.2741 147.402 61.7635 147.98C62.2487 148.57 62.5539 149.265 62.6789 150.067C62.7885 150.875 62.6638 151.763 62.3048 152.731C61.9459 153.698 61.4632 154.447 60.8569 154.978C60.2465 155.519 59.5671 155.849 58.8189 155.969C58.0707 156.088 57.3085 156.004 56.5321 155.716C55.6883 155.403 55.0054 154.932 54.4835 154.303C53.9462 153.682 53.6136 152.957 53.4857 152.128C53.3536 151.312 53.4524 150.459 53.7822 149.57C54.1161 148.67 54.5995 147.953 55.2325 147.42C55.8655 146.887 56.5905 146.554 57.4074 146.422C58.2132 146.286 59.0379 146.374 59.8818 146.687ZM65.6386 145.194L61.137 157.328L59.9894 156.902L60.9786 154.236L61.7542 152.507L62.2491 150.656L64.4404 144.749L65.6386 145.194ZM59.5717 147.782C58.9416 147.548 58.3269 147.48 57.7275 147.577C57.124 147.686 56.5799 147.945 56.0954 148.354C55.6067 148.775 55.235 149.328 54.9804 150.014C54.7258 150.701 54.6487 151.357 54.7493 151.983C54.8498 152.609 55.0933 153.16 55.4798 153.636C55.8663 154.112 56.3746 154.467 57.0047 154.701C57.6348 154.934 58.2572 154.999 58.872 154.894C59.4756 154.785 60.0196 154.526 60.5042 154.117C60.9775 153.704 61.3414 153.154 61.596 152.468C61.8506 151.782 61.9354 151.122 61.8503 150.489C61.7498 149.863 61.5062 149.312 61.1197 148.836C60.7178 148.367 60.2018 148.015 59.5717 147.782Z" fill="black"/>
<path d="M39.9277 146.989C39.2969 146.551 38.8304 146.044 38.5284 145.469C38.2097 144.897 38.0884 144.273 38.1645 143.595C38.2308 142.911 38.524 142.194 39.0443 141.445L42.1759 136.936L43.2257 137.665L40.1659 142.07C39.5978 142.888 39.3769 143.648 39.5034 144.349C39.6132 145.054 40.0378 145.663 40.7771 146.176C41.3291 146.559 41.8908 146.781 42.4622 146.842C43.0169 146.906 43.5548 146.804 44.0759 146.538C44.5802 146.275 45.0378 145.847 45.4485 145.256L48.2824 141.175L49.3321 141.904L43.9416 149.666L42.9362 148.968L44.4147 146.839L44.3001 147.351C43.6635 147.742 42.9646 147.907 42.2035 147.846C41.4354 147.795 40.6768 147.509 39.9277 146.989Z" fill="black"/>
<path d="M37.0145 132.119C37.6641 132.759 38.1064 133.481 38.3413 134.285C38.5593 135.09 38.5652 135.896 38.3589 136.703C38.1442 137.519 37.7083 138.261 37.0512 138.927C36.3857 139.603 35.6507 140.049 34.8461 140.267C34.0415 140.485 33.2396 140.487 32.4403 140.272C31.6411 140.057 30.9124 139.625 30.2542 138.977C29.5875 138.32 29.141 137.593 28.9146 136.797C28.6796 135.993 28.6695 135.191 28.8844 134.392C29.0906 133.585 29.5265 132.843 30.192 132.168C30.8491 131.502 31.5841 131.055 32.3972 130.828C33.1932 130.602 33.9994 130.596 34.8156 130.811C35.6234 131.034 36.3563 131.47 37.0145 132.119ZM36.2184 132.926C35.7312 132.446 35.1943 132.128 34.6076 131.971C34.0125 131.822 33.4144 131.839 32.8132 132.022C32.195 132.204 31.629 132.556 31.1151 133.078C30.5928 133.608 30.2491 134.179 30.0838 134.791C29.91 135.394 29.9058 135.988 30.0713 136.573C30.2283 137.165 30.5462 137.698 31.0248 138.169C31.5035 138.641 32.0404 138.951 32.6355 139.099C33.2222 139.256 33.8204 139.248 34.4301 139.074C35.0398 138.9 35.6058 138.548 36.1281 138.018C36.642 137.496 36.9858 136.925 37.1595 136.305C37.3247 135.693 37.3289 135.09 37.1718 134.497C37.0063 133.913 36.6885 133.389 36.2184 132.926Z" fill="black"/>
<path d="M30.9419 125.662L25.1518 133.937L24.461 132.927L29.8693 125.305L30.1842 125.766L21.0678 127.964L20.4481 127.057L25.8259 119.392L26.1408 119.852L17.0447 122.08L16.3844 121.114L26.2077 118.738L26.8884 119.734L21.8704 127.001L21.6571 126.689L30.2613 124.667L30.9419 125.662Z" fill="black"/>
<path d="M21.3518 108.085C21.6231 108.816 21.7786 109.545 21.8181 110.273C21.8464 111.005 21.772 111.615 21.5947 112.103L20.4492 111.913C20.5857 111.453 20.6508 110.904 20.6446 110.267C20.6272 109.633 20.5037 109.007 20.2741 108.388C19.9611 107.545 19.6063 106.985 19.2098 106.71C18.802 106.439 18.3788 106.384 17.94 106.547C17.6137 106.668 17.4002 106.869 17.2995 107.149C17.1833 107.423 17.1429 107.745 17.1781 108.116C17.202 108.491 17.2575 108.899 17.3444 109.341C17.4314 109.782 17.507 110.227 17.5715 110.677C17.6317 111.115 17.6401 111.535 17.5965 111.935C17.5417 112.339 17.4021 112.704 17.1776 113.031C16.949 113.346 16.5815 113.598 16.0752 113.785C15.5914 113.965 15.1082 113.99 14.6254 113.862C14.1427 113.734 13.6985 113.451 13.2927 113.013C12.8715 112.567 12.5211 111.968 12.2414 111.214C12.0286 110.64 11.8944 110.037 11.8391 109.405C11.7725 108.777 11.7941 108.231 11.9038 107.768L13.0599 107.935C12.936 108.429 12.9012 108.922 12.9557 109.413C12.9989 109.909 13.1039 110.382 13.2709 110.832C13.5673 111.631 13.927 112.17 14.3502 112.448C14.758 112.719 15.1756 112.775 15.6032 112.617C15.9407 112.491 16.1675 112.292 16.2837 112.019C16.3956 111.734 16.4453 111.402 16.4326 111.023C16.4044 110.636 16.349 110.228 16.2662 109.798C16.1793 109.357 16.1113 108.915 16.0623 108.472C15.9979 108.023 15.9875 107.598 16.031 107.198C16.0591 106.79 16.1875 106.429 16.4162 106.114C16.6294 105.792 16.9779 105.541 17.4617 105.361C17.9792 105.169 18.4835 105.149 18.9746 105.299C19.4502 105.443 19.8972 105.751 20.3155 106.223C20.7184 106.688 21.0638 107.308 21.3518 108.085Z" fill="black"/>
<path d="M9.07056 100.022C8.91801 99.2696 8.93155 98.5812 9.11116 97.9571C9.27663 97.3236 9.62121 96.7885 10.1449 96.3518C10.6662 95.9034 11.3738 95.5886 12.2676 95.4075L17.6483 94.3173L17.9021 95.5698L12.645 96.635C11.6688 96.8328 10.9838 97.2287 10.5899 97.8227C10.1819 98.4074 10.0673 99.1408 10.2461 100.023C10.3796 100.681 10.6316 101.23 11.0022 101.669C11.3587 102.099 11.8172 102.398 12.3778 102.566C12.9242 102.725 13.5502 102.733 14.2559 102.59L19.1249 101.603L19.3788 102.856L6.28876 105.508L6.03491 104.255L12.4035 102.965L11.9772 103.309C11.2473 103.15 10.6286 102.786 10.1211 102.215C9.6019 101.647 9.25172 100.916 9.07056 100.022Z" fill="black"/>
<path d="M17.2553 87.2585C17.2799 88.1702 17.0982 88.9974 16.7101 89.7401C16.3097 90.4712 15.7553 91.0564 15.0469 91.4957C14.3266 91.9353 13.4985 92.1678 12.5629 92.193C11.6152 92.2186 10.7759 92.0312 10.0448 91.6308C9.31369 91.2304 8.73449 90.6759 8.30719 89.9672C7.87989 89.2585 7.65375 88.4423 7.62879 87.5186C7.6035 86.5829 7.78505 85.7497 8.17345 85.019C8.56152 84.2762 9.10992 83.6912 9.81863 83.2639C10.527 82.8246 11.355 82.5922 12.3027 82.5666C13.2384 82.5413 14.0777 82.7287 14.8208 83.1287C15.5516 83.5171 16.1368 84.0715 16.5764 84.7919C17.004 85.5126 17.2303 86.3348 17.2553 87.2585ZM16.1217 87.2891C16.1032 86.6054 15.9369 86.0036 15.6227 85.4839C15.2966 84.9646 14.8536 84.5624 14.2936 84.2774C13.7214 83.9807 13.0694 83.8423 12.3377 83.8621C11.594 83.8822 10.9504 84.0556 10.4071 84.3824C9.86337 84.6972 9.44871 85.1226 9.16309 85.6585C8.86547 86.1947 8.72574 86.7987 8.74389 87.4705C8.76205 88.1422 8.9342 88.7378 9.26035 89.2572C9.57451 89.7769 10.0117 90.1852 10.5719 90.4822C11.1322 90.7792 11.7841 90.9176 12.5279 90.8975C13.2596 90.8777 13.9031 90.7043 14.4585 90.3772C15.0019 90.0504 15.4224 89.6189 15.72 89.0826C16.0056 88.5467 16.1395 87.9489 16.1217 87.2891Z" fill="black"/>
<path d="M17.9505 75.2661C17.8313 76.0733 17.5395 76.7763 17.0751 77.3751C16.5988 77.9721 15.9815 78.415 15.2232 78.7036C14.4547 78.9787 13.56 79.0411 12.539 78.8908C11.518 78.7406 10.6853 78.424 10.041 77.941C9.38473 77.4563 8.92079 76.8604 8.64916 76.1533C8.37753 75.4462 8.30218 74.6831 8.42312 73.864C8.55458 72.9737 8.87384 72.208 9.3809 71.567C9.87785 70.9124 10.5182 70.4365 11.302 70.1395C12.0739 69.8407 12.9288 69.7603 13.8667 69.8983C14.8165 70.0381 15.6178 70.3622 16.2705 70.8707C16.9232 71.3791 17.3988 72.0192 17.6973 72.7909C17.9976 73.5507 18.082 74.3757 17.9505 75.2661ZM20.6038 80.5871L7.79966 78.7028L7.97844 77.4919L10.7921 77.906L12.6436 78.3058L14.5576 78.4055L20.7904 79.3228L20.6038 80.5871ZM16.8154 75.19C16.9136 74.5252 16.8528 73.9098 16.6332 73.3438C16.4016 72.776 16.0356 72.2977 15.535 71.9086C15.0226 71.5179 14.4043 71.2692 13.6801 71.1626C12.9559 71.056 12.2979 71.1169 11.7062 71.3452C11.1146 71.5735 10.6258 71.9261 10.24 72.403C9.85421 72.8799 9.61224 73.4507 9.51408 74.1155C9.41593 74.7803 9.48175 75.4025 9.71155 75.9822C9.9431 76.5499 10.3092 77.0283 10.8097 77.4174C11.312 77.7945 11.9252 78.0364 12.6494 78.1429C13.3736 78.2495 14.0367 78.1955 14.6385 77.9808C15.2302 77.7525 15.7189 77.3999 16.1047 76.923C16.4804 76.4325 16.7173 75.8548 16.8154 75.19Z" fill="black"/>
<path d="M13.5559 55.6515C13.8551 54.9442 14.255 54.3837 14.7557 53.9701C15.2501 53.5407 15.8367 53.2937 16.5155 53.229C17.199 53.1533 17.9608 53.293 18.8008 53.6482L23.8572 55.7866L23.3593 56.9636L18.4189 54.8743C17.5016 54.4864 16.7126 54.4263 16.0521 54.6942C15.3851 54.9463 14.8763 55.4869 14.5257 56.3157C14.2639 56.9346 14.1619 57.5299 14.2198 58.1016C14.2712 58.6576 14.4808 59.1631 14.8485 59.6183C15.2099 60.0578 15.7221 60.4177 16.3853 60.6982L20.9609 62.6332L20.463 63.8102L11.7593 60.1294L12.2362 59.0021L14.6235 60.0117L14.0987 60.0048C13.5856 59.4621 13.2808 58.812 13.1843 58.0546C13.0767 57.2925 13.2005 56.4915 13.5559 55.6515Z" fill="black"/>
<path d="M27.5055 49.7591C27.0102 50.525 26.3925 51.1044 25.6524 51.4976C24.9087 51.8741 24.1205 52.0433 23.2877 52.005C22.445 51.9603 21.6305 51.6838 20.8445 51.1756C20.0484 50.6609 19.4621 50.0318 19.0855 49.2882C18.709 48.5446 18.5449 47.7597 18.5932 46.9336C18.6416 46.1075 18.9167 45.3065 19.4185 44.5306C19.9268 43.7447 20.5477 43.1602 21.2813 42.7771C22.0215 42.384 22.8046 42.2115 23.6308 42.2599C24.4636 42.2981 25.278 42.5746 26.0741 43.0893C26.8601 43.5975 27.4464 44.2266 27.8331 44.9767C28.2161 45.7102 28.3853 46.4984 28.3405 47.341C28.2856 48.1772 28.0072 48.9833 27.5055 49.7591ZM26.5532 49.1435C26.9246 48.5691 27.1277 47.9788 27.1625 47.3726C27.1872 46.7598 27.0493 46.1776 26.7486 45.626C26.4444 45.0578 25.985 44.575 25.3703 44.1775C24.7455 43.7736 24.1166 43.5528 23.4836 43.515C22.8571 43.4672 22.2746 43.5836 21.7359 43.8641C21.1872 44.138 20.7303 44.5572 20.3654 45.1214C20.0005 45.6857 19.8057 46.2742 19.7809 46.887C19.7462 47.4932 19.8758 48.0772 20.1699 48.6389C20.4641 49.2006 20.9235 49.6834 21.5483 50.0874C22.163 50.4848 22.7919 50.7056 23.435 50.7499C24.068 50.7876 24.6588 50.6694 25.2076 50.3955C25.7462 50.115 26.1947 49.6977 26.5532 49.1435Z" fill="black"/>
<path d="M32.5626 42.5066L23.2856 38.5127L24.1353 37.6317L32.695 41.3841L32.3076 41.7857L28.3088 33.3044L29.071 32.514L37.6682 36.2275L37.2808 36.6291L33.257 28.1737L34.0692 27.3316L38.3855 36.4691L37.5483 37.3371L29.4144 33.8953L29.6768 33.6232L33.3998 41.6386L32.5626 42.5066Z" fill="black"/>
<path d="M47.6579 29.6061C46.9982 30.0223 46.3165 30.3249 45.6126 30.5136C44.9023 30.6923 44.29 30.7452 43.7757 30.6724L43.7248 29.5126C44.2033 29.5512 44.7539 29.5017 45.3766 29.3642C45.9929 29.2165 46.5801 28.9666 47.1383 28.6143C47.8994 28.134 48.3738 27.6715 48.5614 27.2268C48.7425 26.7719 48.7082 26.3466 48.4584 25.9509C48.2727 25.6566 48.0321 25.4891 47.7368 25.4484C47.4453 25.3912 47.1216 25.418 46.7659 25.529C46.4038 25.6298 46.0158 25.7682 45.6019 25.9442C45.188 26.1203 44.7677 26.2862 44.3409 26.442C43.9244 26.5914 43.5158 26.686 43.1153 26.7259C42.7083 26.7557 42.322 26.6944 41.9562 26.5421C41.6006 26.3834 41.2787 26.0757 40.9905 25.619C40.715 25.1827 40.5902 24.7152 40.616 24.2165C40.6418 23.7177 40.8272 23.2247 41.1723 22.7373C41.5212 22.2334 42.0356 21.7669 42.7156 21.3378C43.2331 21.0112 43.7955 20.7556 44.4028 20.5711C45.0036 20.3764 45.5419 20.285 46.0177 20.2969L46.0935 21.4623C45.5846 21.4429 45.0951 21.5106 44.6251 21.6653C44.1487 21.8098 43.7076 22.0101 43.3016 22.2663C42.5811 22.721 42.1284 23.184 41.9435 23.6555C41.7623 24.1103 41.7934 24.5306 42.0368 24.9162C42.229 25.2206 42.4708 25.4014 42.7624 25.4587C43.0641 25.5095 43.3992 25.4896 43.7677 25.399C44.14 25.2918 44.528 25.1533 44.9317 24.9837C45.3457 24.8076 45.7641 24.65 46.1871 24.5108C46.6138 24.355 47.0275 24.2572 47.428 24.2173C47.8323 24.1608 48.2122 24.2119 48.5678 24.3706C48.9272 24.5128 49.2446 24.8021 49.52 25.2384C49.8146 25.7052 49.9389 26.1943 49.8928 26.7059C49.8505 27.2008 49.6415 27.7016 49.266 28.2082C48.8941 28.6983 48.3581 29.1642 47.6579 29.6061Z" fill="black"/>
<path d="M53.2037 15.8037C53.9088 15.4993 54.5852 15.3707 55.233 15.4178C55.887 15.4491 56.4817 15.676 57.017 16.0984C57.5634 16.516 58.0173 17.1435 58.3789 17.9807L60.5555 23.0208L59.3822 23.5274L57.2555 18.603C56.8607 17.6886 56.3319 17.0999 55.6694 16.837C55.0131 16.5583 54.2719 16.5973 53.4456 16.9541C52.8286 17.2204 52.3435 17.5802 51.9902 18.0333C51.6432 18.4707 51.4452 18.981 51.3964 19.5641C51.3539 20.1314 51.4753 20.7456 51.7608 21.4066L53.7304 25.9674L52.5571 26.474L47.2619 14.2125L48.4352 13.706L51.0114 19.6715L50.5874 19.3252C50.5917 18.5783 50.8206 17.8978 51.2743 17.2837C51.7233 16.6585 52.3664 16.1652 53.2037 15.8037Z" fill="black"/>
<path d="M67.1813 21.228C66.2942 21.4396 65.4473 21.432 64.6405 21.205C63.8427 20.9636 63.1559 20.5414 62.5803 19.9386C62.0018 19.324 61.6039 18.5616 61.3867 17.6511C61.1666 16.729 61.1773 15.8691 61.4187 15.0713C61.6601 14.2735 62.0836 13.5926 62.6892 13.0286C63.2948 12.4647 64.047 12.0755 64.9458 11.8611C65.8563 11.6438 66.709 11.6501 67.5041 11.8799C68.3108 12.1068 68.9961 12.5232 69.5601 13.1288C70.1358 13.7317 70.5337 14.4941 70.7538 15.4162C70.971 16.3267 70.9604 17.1866 70.7218 17.9961C70.492 18.7911 70.0699 19.4778 69.4554 20.0562C68.8381 20.623 68.0801 21.0136 67.1813 21.228ZM66.918 20.125C67.5834 19.9662 68.138 19.6797 68.5819 19.2654C69.0231 18.8393 69.3255 18.3231 69.4892 17.7165C69.6617 17.0955 69.6631 16.429 69.4931 15.717C69.3204 14.9933 69.0183 14.3992 68.5866 13.9347C68.1667 13.4674 67.6651 13.1491 67.0819 12.9799C66.4959 12.7989 65.876 12.7864 65.2224 12.9424C64.5687 13.0983 64.0213 13.3893 63.5802 13.8153C63.1362 14.2297 62.8266 14.7415 62.6512 15.3508C62.4759 15.9602 62.4746 16.6267 62.6473 17.3504C62.8172 18.0624 63.1194 18.6565 63.5538 19.1326C63.9854 19.5972 64.4942 19.9199 65.0802 20.1008C65.6635 20.2701 66.2761 20.2781 66.918 20.125Z" fill="black"/>
<path d="M78.8087 19.4474C77.9943 19.4977 77.2462 19.3576 76.5645 19.027C75.8821 18.6845 75.3214 18.1721 74.8825 17.4899C74.4548 16.7949 74.2091 15.9324 74.1454 14.9024C74.0817 13.8724 74.2197 12.9922 74.5593 12.2618C74.8981 11.5195 75.3854 10.9424 76.0212 10.5304C76.657 10.1184 77.3881 9.88683 78.2145 9.83575C79.1128 9.78024 79.9279 9.93425 80.6597 10.2978C81.4028 10.6486 82.0005 11.1768 82.4529 11.8822C82.9045 12.5757 83.1596 13.3955 83.2181 14.3417C83.2773 15.2999 83.1255 16.1508 82.7628 16.8946C82.4 17.6384 81.8718 18.2362 81.1784 18.6878C80.4969 19.1387 79.707 19.3919 78.8087 19.4474ZM74.1499 23.1438L73.3514 10.2265L74.5731 10.151L74.7485 12.9896L74.7394 14.8837L75.0368 16.777L75.4255 23.065L74.1499 23.1438ZM78.6489 18.3211C79.3196 18.2797 79.9092 18.0929 80.4177 17.7609C80.9255 17.417 81.318 16.9599 81.5954 16.3897C81.872 15.8075 81.9877 15.1511 81.9425 14.4205C81.8974 13.6899 81.7021 13.0588 81.3566 12.5271C81.0111 11.9954 80.5653 11.5901 80.019 11.3113C79.4728 11.0324 78.8643 10.9137 78.1936 10.9552C77.5229 10.9966 76.9276 11.1897 76.4079 11.5344C75.9002 11.8784 75.5076 12.3355 75.2303 12.9057C74.9649 13.4751 74.8548 14.1252 74.9 14.8558C74.9451 15.5864 75.1348 16.2239 75.4691 16.7683C75.8145 17.3 76.2604 17.7053 76.8066 17.9841C77.3641 18.2502 77.9782 18.3626 78.6489 18.3211Z" fill="black"/>
<path d="M97.5281 11.0836C98.282 11.2303 98.9129 11.506 99.421 11.9105C99.9431 12.3055 100.306 12.8285 100.509 13.4793C100.724 14.1325 100.745 14.9066 100.57 15.8018L99.521 21.1906L98.2666 20.9464L99.2918 15.6813C99.4822 14.7037 99.3782 13.9193 98.9798 13.3283C98.5955 12.7278 97.9617 12.3416 97.0782 12.1696C96.4186 12.0412 95.8151 12.0643 95.2676 12.2389C94.7342 12.404 94.2827 12.7134 93.9132 13.1672C93.5577 13.6115 93.3112 14.1869 93.1736 14.8937L92.224 19.7701L90.9696 19.5259L92.7758 10.2501L93.9772 10.484L93.4818 13.0282L93.3804 12.5133C93.8056 11.8993 94.3788 11.4668 95.1 11.216C95.8236 10.9534 96.6329 10.9093 97.5281 11.0836Z" fill="black"/>
<path d="M106.118 23.4859C105.267 23.1591 104.572 22.6742 104.035 22.031C103.513 21.381 103.185 20.6446 103.051 19.822C102.922 18.9881 103.024 18.1343 103.36 17.2604C103.699 16.3754 104.194 15.672 104.845 15.1503C105.495 14.6286 106.229 14.3063 107.047 14.1833C107.866 14.0604 108.706 14.1645 109.569 14.4955C110.443 14.8309 111.143 15.318 111.669 15.9568C112.206 16.6 112.536 17.3307 112.659 18.1491C112.793 18.9717 112.69 19.8256 112.35 20.7106C112.015 21.5845 111.52 22.2878 110.866 22.8207C110.227 23.3467 109.49 23.6747 108.656 23.8045C107.827 23.9231 106.981 23.8169 106.118 23.4859ZM106.524 22.4272C107.163 22.6723 107.782 22.7494 108.383 22.6585C108.988 22.5563 109.529 22.3014 110.007 21.8935C110.5 21.4788 110.878 20.9297 111.141 20.2463C111.407 19.5517 111.494 18.8909 111.4 18.2637C111.318 17.6409 111.084 17.0949 110.699 16.6256C110.318 16.1452 109.813 15.7846 109.186 15.5438C108.558 15.3031 107.942 15.2337 107.338 15.3358C106.737 15.4268 106.192 15.674 105.703 16.0775C105.214 16.4811 104.836 17.0302 104.57 17.7247C104.307 18.4081 104.221 19.069 104.31 19.7073C104.403 20.3344 104.641 20.8882 105.022 21.3687C105.407 21.8379 105.908 22.1908 106.524 22.4272Z" fill="black"/>
<path d="M114.465 27.0457L116.495 17.1525L117.53 17.8057L115.591 26.9476L115.119 26.6498L122.615 21.0141L123.543 21.6001L121.65 30.7707L121.178 30.473L128.643 24.8181L129.632 25.4425L121.559 31.5221L120.539 30.8785L122.26 22.2164L122.58 22.4182L115.485 27.6893L114.465 27.0457Z" fill="black"/>
<path d="M130.179 39.2443C129.637 38.6828 129.202 38.0767 128.875 37.4258C128.556 36.7665 128.38 36.1778 128.347 35.6596L129.472 35.3745C129.532 35.8508 129.692 36.3798 129.953 36.9616C130.222 37.5351 130.586 38.0594 131.044 38.5344C131.669 39.1822 132.218 39.5529 132.692 39.6463C133.174 39.7315 133.584 39.6116 133.921 39.2868C134.171 39.0452 134.286 38.7758 134.266 38.4784C134.263 38.1813 134.171 37.8699 133.991 37.5442C133.818 37.2101 133.604 36.8583 133.348 36.4887C133.091 36.1191 132.844 35.7413 132.604 35.355C132.374 34.9775 132.198 34.5966 132.078 34.2126C131.966 33.8202 131.948 33.4295 132.023 33.0405C132.106 32.6601 132.342 32.2825 132.731 31.9077C133.102 31.5496 133.535 31.3326 134.028 31.2567C134.522 31.1808 135.042 31.2624 135.59 31.5014C136.154 31.7408 136.715 32.1499 137.273 32.7286C137.698 33.1691 138.063 33.6679 138.367 34.225C138.679 34.7738 138.878 35.2823 138.963 35.7506L137.837 36.0611C137.752 35.5589 137.587 35.0934 137.34 34.6646C137.102 34.2275 136.816 33.8362 136.483 33.4907C135.892 32.8774 135.346 32.5281 134.847 32.4426C134.365 32.3575 133.96 32.4732 133.631 32.7897C133.372 33.0396 133.244 33.313 133.247 33.6101C133.259 33.9158 133.346 34.2399 133.51 34.5823C133.69 34.925 133.904 35.2768 134.152 35.6377C134.409 36.0073 134.648 36.385 134.87 36.7709C135.109 37.1572 135.289 37.5423 135.409 37.9264C135.547 38.3107 135.574 38.6931 135.49 39.0735C135.424 39.4541 135.205 39.8235 134.834 40.1817C134.436 40.5648 133.983 40.7857 133.472 40.8443C132.979 40.9033 132.446 40.8002 131.874 40.5352C131.318 40.2706 130.753 39.8402 130.179 39.2443Z" fill="black"/>
<path d="M144.718 41.7377C145.161 42.3653 145.426 43.0008 145.512 43.6444C145.616 44.2909 145.516 44.9194 145.212 45.5299C144.916 46.1503 144.395 46.7233 143.649 47.2489L139.163 50.4128L138.426 49.3685L142.81 46.2771C143.624 45.7031 144.091 45.065 144.213 44.3627C144.351 43.6633 144.161 42.9458 143.642 42.2104C143.254 41.6613 142.803 41.2603 142.287 41.0075C141.787 40.7576 141.247 40.6686 140.666 40.7405C140.102 40.8152 139.526 41.06 138.938 41.475L134.878 44.3381L134.141 43.2938L145.056 35.5965L145.793 36.6409L140.482 40.3857L140.734 39.8997C141.466 39.7507 142.179 39.8352 142.874 40.1532C143.578 40.4643 144.192 40.9924 144.718 41.7377Z" fill="black"/>
<path d="M142.356 56.6758C141.967 55.8512 141.8 55.0208 141.857 54.1847C141.929 53.3543 142.201 52.5956 142.673 51.9084C143.155 51.2161 143.82 50.6702 144.666 50.2706C145.524 49.8659 146.367 49.6997 147.198 49.7721C148.028 49.8446 148.782 50.1192 149.458 50.5961C150.134 51.073 150.67 51.7292 151.065 52.5647C151.464 53.4111 151.633 54.2469 151.572 55.0721C151.515 55.9082 151.249 56.6644 150.772 57.3407C150.3 58.0279 149.636 58.5738 148.778 58.9785C147.932 59.3781 147.088 59.5442 146.247 59.477C145.421 59.4154 144.663 59.1433 143.97 58.6607C143.289 58.173 142.751 57.5114 142.356 56.6758ZM143.382 56.1917C143.674 56.8102 144.068 57.2942 144.565 57.6435C145.072 57.9878 145.64 58.1777 146.267 58.2133C146.91 58.2547 147.563 58.1191 148.225 57.8066C148.898 57.489 149.417 57.0713 149.783 56.5535C150.154 56.0466 150.363 55.4903 150.408 54.8848C150.465 54.2742 150.35 53.665 150.063 53.0574C149.776 52.4497 149.379 51.9738 148.871 51.6295C148.374 51.2802 147.81 51.0822 147.177 51.0358C146.545 50.9893 145.892 51.1249 145.22 51.4425C144.558 51.755 144.038 52.1727 143.662 52.6956C143.296 53.2134 143.084 53.7776 143.028 54.3882C142.982 54.9937 143.1 55.5949 143.382 56.1917Z" fill="black"/>
<path d="M146.468 67.6959C146.252 66.9091 146.235 66.1482 146.419 65.4132C146.614 64.675 147 64.0211 147.578 63.4516C148.17 62.8904 148.964 62.473 149.959 62.1993C150.954 61.9256 151.844 61.88 152.629 62.0625C153.425 62.2418 154.09 62.6004 154.623 63.1381C155.157 63.6758 155.534 64.3438 155.753 65.1421C155.992 66.0099 156.009 66.8392 155.803 67.63C155.612 68.4292 155.218 69.1226 154.62 69.7101C154.034 70.2944 153.284 70.7123 152.37 70.9637C151.445 71.2183 150.581 71.2443 149.778 71.0419C148.976 70.8394 148.282 70.4452 147.698 69.8592C147.117 69.2847 146.707 68.5636 146.468 67.6959ZM141.894 63.8947L154.373 60.4627L154.697 61.6429L151.955 62.3971L150.099 62.7768L148.307 63.4563L142.233 65.127L141.894 63.8947ZM147.538 67.3084C147.716 67.9563 148.02 68.495 148.449 68.9246C148.89 69.3509 149.418 69.6413 150.033 69.7957C150.659 69.947 151.326 69.9256 152.031 69.7315C152.737 69.5373 153.315 69.2167 153.764 68.7695C154.214 68.3223 154.519 67.8028 154.68 67.2109C154.84 66.6191 154.832 65.9992 154.653 65.3513C154.475 64.7034 154.164 64.1605 153.72 63.7225C153.279 63.2962 152.751 63.0058 152.136 62.8513C151.524 62.7085 150.866 62.7341 150.16 62.9282C149.454 63.1223 148.869 63.4388 148.405 63.8776C147.955 64.3248 147.65 64.8443 147.489 65.4362C147.343 66.0364 147.359 66.6604 147.538 67.3084Z" fill="black"/>
</svg>
